ISO-10303-21;
HEADER;
/* BatteryHolder_MYOUNG_BH-18650-B1BA002_1x18650.step 3D STEP model for use in ECAD systems
 * Copyright (C) 2026, KiCAD
 *
 * This work is licensed under the
 * [Creative Commons CC-BY-SA 4.0 License](https://creativecommons.org/licenses/by-sa/4.0/legalcode),
 * with the following exception:
 *
 * To the extent that the creation of electronic designs that use 'Licensed Material' can be
 * considered to be 'Adapted Material', then the copyright holder waives article 3 of the license
 * with respect to these designs and any generated files which use data provided as part of the
 * 'Licensed Material'.
 *
 * You are free to use the library data in your own projects without the obligation to share your
 * project files under this or any other license agreement. However, if you wish to distribute
 * these libraries, or parts thereof (including in modified form) as a collection then the exception
 * above does not apply. Please refer to
 * https://gitlab.com/kicad/libraries/kicad-packages3D/-/blob/master/LICENSE.md for further clarification
 * of the exception.
 *
 * Disclaimer of Warranties and Limitation of Liability.
 * These libraries are provided in the hope that they will be useful, but are provided without warranty of any kind, express or implied.
 * USE 3D CAD DATA AT YOUR OWN RISK
 * DO NOT RELY UPON ANY INFORMATION FOUND HERE WITHOUT INDEPENDENT VERIFICATION.
 */

FILE_DESCRIPTION(
/* description */ ('model of BatteryHolder_MYOUNG_BH-18650-B1BA002_1x18650'),
/* implementation_level */ '2;1');

FILE_NAME(
/* name */ 'BatteryHolder_MYOUNG_BH-18650-B1BA002_1x18650.step',
/* time_stamp */ '1970-01-01T00:00:00',
/* author */ ('KiCAD','kicad'),
/* organization */ ('OCCT'),
/* preprocessor_version */ '',
/* originating_system */ 'KiCAD',
/* authorisation */ '');

FILE_SCHEMA(('AUTOMOTIVE_DESIGN { 1 0 10303 214 1 1 1 1 }'));
ENDSEC;

DATA;
#1=APPLICATION_PROTOCOL_DEFINITION('international standard','automotive_design',2000,#2);
#2=APPLICATION_CONTEXT('core data for automotive mechanical design processes');
#3=SHAPE_DEFINITION_REPRESENTATION(#4,#10);
#4=PRODUCT_DEFINITION_SHAPE('','',#5);
#5=PRODUCT_DEFINITION('design','',#6,#9);
#6=PRODUCT_DEFINITION_FORMATION('','',#7);
#7=PRODUCT('BatteryHolder_MYOUNG_BH-18650-B1BA002_1x18650','BatteryHolder_MYOUNG_BH-18650-B1BA002_1x18650','',(#8));
#8=PRODUCT_CONTEXT('',#2,'mechanical');
#9=PRODUCT_DEFINITION_CONTEXT('part definition',#2,'design');
#10=ADVANCED_BREP_SHAPE_REPRESENTATION('',(#11,#15),#1443);
#11=AXIS2_PLACEMENT_3D('',#12,#13,#14);
#12=CARTESIAN_POINT('',(0.,0.,0.));
#13=DIRECTION('',(0.,0.,1.));
#14=DIRECTION('',(1.,0.,-0.));
#15=BREP_WITH_VOIDS('',#16,(#1245,#1285,#1325,#1365));
#16=CLOSED_SHELL('',(#17,#70,#164,#224,#293,#320,#340,#391,#399,#431,#439,#456,#466,#483,#525,#542,#584,#603,#617,#629,#638,#650,#657,#666,#674,#681,#697,#739,#768,#780,#799,#813,#825,#837,#841,#853,#878,#898,#910,#938,#964,#971,#978,#988,#993,#1000,#1008,#1013,#1021,#1036,#1050,#1059,#1066,#1074,#1078,#1093,#1110,#1125,#1142,#1157,#1174,#1189,#1206,#1221,#1239));
#17=ADVANCED_FACE('',(#18),#67,.F.);
#18=FACE_BOUND('',#19,.F.);
#19=EDGE_LOOP('',(#20,#29,#36,#43,#48,#52,#56,#63));
#20=ORIENTED_EDGE('',*,*,#21,.F.);
#21=EDGE_CURVE('',#22,#24,#26,.T.);
#22=VERTEX_POINT('',#23);
#23=CARTESIAN_POINT('',(-38.525,-10.325,0.1));
#24=VERTEX_POINT('',#25);
#25=CARTESIAN_POINT('',(38.525,-10.325,0.1));
#26=LINE('',#23,#27);
#27=VECTOR('',#28,1.);
#28=DIRECTION('',(1.,0.,0.));
#29=ORIENTED_EDGE('',*,*,#30,.F.);
#30=EDGE_CURVE('',#31,#22,#33,.T.);
#31=VERTEX_POINT('',#32);
#32=CARTESIAN_POINT('',(-38.525,-10.325,9.6));
#33=LINE('',#32,#34);
#34=VECTOR('',#35,1.);
#35=DIRECTION('',(0.,0.,-1.));
#36=ORIENTED_EDGE('',*,*,#37,.F.);
#37=EDGE_CURVE('',#38,#31,#40,.T.);
#38=VERTEX_POINT('',#39);
#39=CARTESIAN_POINT('',(-29.525,-10.325,9.6));
#40=LINE('',#39,#41);
#41=VECTOR('',#42,1.);
#42=DIRECTION('',(-1.,0.,0.));
#43=ORIENTED_EDGE('',*,*,#44,.T.);
#44=EDGE_CURVE('',#38,#45,#47,.T.);
#45=VERTEX_POINT('',#46);
#46=CARTESIAN_POINT('',(-19.,-10.325,9.6));
#47=LINE('',#32,#27);
#48=ORIENTED_EDGE('',*,*,#49,.T.);
#49=EDGE_CURVE('',#45,#50,#47,.T.);
#50=VERTEX_POINT('',#51);
#51=CARTESIAN_POINT('',(19.,-10.325,9.6));
#52=ORIENTED_EDGE('',*,*,#53,.T.);
#53=EDGE_CURVE('',#50,#54,#47,.T.);
#54=VERTEX_POINT('',#55);
#55=CARTESIAN_POINT('',(29.525,-10.325,9.6));
#56=ORIENTED_EDGE('',*,*,#57,.F.);
#57=EDGE_CURVE('',#58,#54,#60,.T.);
#58=VERTEX_POINT('',#59);
#59=CARTESIAN_POINT('',(38.525,-10.325,9.6));
#60=LINE('',#59,#61);
#61=VECTOR('',#62,1.);
#62=DIRECTION('',(-1.,1.973729821556E-16,0.));
#63=ORIENTED_EDGE('',*,*,#64,.F.);
#64=EDGE_CURVE('',#24,#58,#65,.T.);
#65=LINE('',#25,#66);
#66=VECTOR('',#13,1.);
#67=PLANE('',#68);
#68=AXIS2_PLACEMENT_3D('',#23,#69,#28);
#69=DIRECTION('',(0.,1.,0.));
#70=ADVANCED_FACE('',(#71,#130,#139),#161,.F.);
#71=FACE_BOUND('',#72,.F.);
#72=EDGE_LOOP('',(#73,#81,#82,#88,#93,#98,#104,#108,#112,#116,#121,#126));
#73=ORIENTED_EDGE('',*,*,#74,.T.);
#74=EDGE_CURVE('',#75,#22,#77,.T.);
#75=VERTEX_POINT('',#76);
#76=CARTESIAN_POINT('',(-38.525,-3.175,0.1));
#77=LINE('',#78,#79);
#78=CARTESIAN_POINT('',(-38.525,10.325,0.1));
#79=VECTOR('',#80,1.);
#80=DIRECTION('',(0.,-1.,0.));
#81=ORIENTED_EDGE('',*,*,#21,.T.);
#82=ORIENTED_EDGE('',*,*,#83,.T.);
#83=EDGE_CURVE('',#24,#84,#86,.T.);
#84=VERTEX_POINT('',#85);
#85=CARTESIAN_POINT('',(38.525,-3.175,0.1));
#86=LINE('',#25,#87);
#87=VECTOR('',#69,1.);
#88=ORIENTED_EDGE('',*,*,#89,.F.);
#89=EDGE_CURVE('',#90,#84,#92,.T.);
#90=VERTEX_POINT('',#91);
#91=CARTESIAN_POINT('',(38.51,-3.175,0.1));
#92=LINE('',#91,#27);
#93=ORIENTED_EDGE('',*,*,#94,.F.);
#94=EDGE_CURVE('',#95,#90,#97,.T.);
#95=VERTEX_POINT('',#96);
#96=CARTESIAN_POINT('',(38.51,3.175,0.1));
#97=LINE('',#96,#79);
#98=ORIENTED_EDGE('',*,*,#99,.F.);
#99=EDGE_CURVE('',#100,#95,#102,.T.);
#100=VERTEX_POINT('',#101);
#101=CARTESIAN_POINT('',(38.525,3.175,0.1));
#102=LINE('',#103,#41);
#103=CARTESIAN_POINT('',(43.01,3.175,0.1));
#104=ORIENTED_EDGE('',*,*,#105,.T.);
#105=EDGE_CURVE('',#100,#106,#86,.T.);
#106=VERTEX_POINT('',#107);
#107=CARTESIAN_POINT('',(38.525,10.325,0.1));
#108=ORIENTED_EDGE('',*,*,#109,.T.);
#109=EDGE_CURVE('',#106,#110,#111,.T.);
#110=VERTEX_POINT('',#78);
#111=LINE('',#107,#41);
#112=ORIENTED_EDGE('',*,*,#113,.T.);
#113=EDGE_CURVE('',#110,#114,#77,.T.);
#114=VERTEX_POINT('',#115);
#115=CARTESIAN_POINT('',(-38.525,3.175,0.1));
#116=ORIENTED_EDGE('',*,*,#117,.F.);
#117=EDGE_CURVE('',#118,#114,#120,.T.);
#118=VERTEX_POINT('',#119);
#119=CARTESIAN_POINT('',(-38.51,3.175,0.1));
#120=LINE('',#119,#41);
#121=ORIENTED_EDGE('',*,*,#122,.F.);
#122=EDGE_CURVE('',#123,#118,#125,.T.);
#123=VERTEX_POINT('',#124);
#124=CARTESIAN_POINT('',(-38.51,-3.175,0.1));
#125=LINE('',#124,#87);
#126=ORIENTED_EDGE('',*,*,#127,.F.);
#127=EDGE_CURVE('',#75,#123,#128,.T.);
#128=LINE('',#129,#27);
#129=CARTESIAN_POINT('',(-43.01,-3.175,0.1));
#130=FACE_BOUND('',#131,.F.);
#131=EDGE_LOOP('',(#132));
#132=ORIENTED_EDGE('',*,*,#133,.F.);
#133=EDGE_CURVE('',#134,#134,#136,.T.);
#134=VERTEX_POINT('',#135);
#135=CARTESIAN_POINT('',(36.625,-8.,0.1));
#136=CIRCLE('',#137,0.785);
#137=AXIS2_PLACEMENT_3D('',#138,#13,#28);
#138=CARTESIAN_POINT('',(35.84,-8.,0.1));
#139=FACE_BOUND('',#140,.F.);
#140=EDGE_LOOP('',(#141,#148,#153,#158));
#141=ORIENTED_EDGE('',*,*,#142,.F.);
#142=EDGE_CURVE('',#143,#145,#147,.T.);
#143=VERTEX_POINT('',#144);
#144=CARTESIAN_POINT('',(36.475,-4.5,0.1));
#145=VERTEX_POINT('',#146);
#146=CARTESIAN_POINT('',(36.575,-4.5,0.1));
#147=LINE('',#144,#27);
#148=ORIENTED_EDGE('',*,*,#149,.F.);
#149=EDGE_CURVE('',#150,#143,#152,.T.);
#150=VERTEX_POINT('',#151);
#151=CARTESIAN_POINT('',(36.475,4.5,0.1));
#152=LINE('',#151,#79);
#153=ORIENTED_EDGE('',*,*,#154,.F.);
#154=EDGE_CURVE('',#155,#150,#157,.T.);
#155=VERTEX_POINT('',#156);
#156=CARTESIAN_POINT('',(36.575,4.5,0.1));
#157=LINE('',#156,#41);
#158=ORIENTED_EDGE('',*,*,#159,.F.);
#159=EDGE_CURVE('',#145,#155,#160,.T.);
#160=LINE('',#146,#87);
#161=PLANE('',#162);
#162=AXIS2_PLACEMENT_3D('',#163,#13,#14);
#163=CARTESIAN_POINT('',(-5.818159555866E-16,0.,0.1));
#164=ADVANCED_FACE('',(#165),#222,.F.);
#165=FACE_BOUND('',#166,.F.);
#166=EDGE_LOOP('',(#167,#177,#181,#182,#183,#190,#196,#201,#202,#206,#210,#218));
#167=ORIENTED_EDGE('',*,*,#168,.F.);
#168=EDGE_CURVE('',#169,#171,#173,.T.);
#169=VERTEX_POINT('',#170);
#170=CARTESIAN_POINT('',(-38.525,-10.32173947368,9.6));
#171=VERTEX_POINT('',#172);
#172=CARTESIAN_POINT('',(-38.525,-7.385363815789,14.95));
#173=LINE('',#174,#175);
#174=CARTESIAN_POINT('',(-38.525,-6.663938182997,16.264418720595));
#175=VECTOR('',#176,1.);
#176=DIRECTION('',(0.,0.481148105635,0.876639321753));
#177=ORIENTED_EDGE('',*,*,#178,.T.);
#178=EDGE_CURVE('',#169,#31,#179,.T.);
#179=LINE('',#180,#79);
#180=CARTESIAN_POINT('',(-38.525,10.325,9.6));
#181=ORIENTED_EDGE('',*,*,#30,.T.);
#182=ORIENTED_EDGE('',*,*,#74,.F.);
#183=ORIENTED_EDGE('',*,*,#184,.T.);
#184=EDGE_CURVE('',#75,#185,#187,.T.);
#185=VERTEX_POINT('',#186);
#186=CARTESIAN_POINT('',(-38.525,-3.175,0.3));
#187=LINE('',#76,#188);
#188=VECTOR('',#189,1.);
#189=DIRECTION('',(0.,-0.,1.));
#190=ORIENTED_EDGE('',*,*,#191,.F.);
#191=EDGE_CURVE('',#192,#185,#194,.T.);
#192=VERTEX_POINT('',#193);
#193=CARTESIAN_POINT('',(-38.525,3.175,0.3));
#194=LINE('',#195,#79);
#195=CARTESIAN_POINT('',(-38.525,5.1625,0.3));
#196=ORIENTED_EDGE('',*,*,#197,.T.);
#197=EDGE_CURVE('',#192,#114,#198,.T.);
#198=LINE('',#115,#199);
#199=VECTOR('',#200,1.);
#200=DIRECTION('',(0.,-0.,-1.));
#201=ORIENTED_EDGE('',*,*,#113,.F.);
#202=ORIENTED_EDGE('',*,*,#203,.F.);
#203=EDGE_CURVE('',#204,#110,#205,.T.);
#204=VERTEX_POINT('',#180);
#205=LINE('',#180,#34);
#206=ORIENTED_EDGE('',*,*,#207,.T.);
#207=EDGE_CURVE('',#204,#208,#179,.T.);
#208=VERTEX_POINT('',#209);
#209=CARTESIAN_POINT('',(-38.525,10.321739473684,9.6));
#210=ORIENTED_EDGE('',*,*,#211,.F.);
#211=EDGE_CURVE('',#212,#208,#214,.T.);
#212=VERTEX_POINT('',#213);
#213=CARTESIAN_POINT('',(-38.525,7.385363815789,14.95));
#214=LINE('',#215,#216);
#215=CARTESIAN_POINT('',(-38.525,9.054211815918,11.909402392306));
#216=VECTOR('',#217,1.);
#217=DIRECTION('',(-0.,0.481148105635,-0.876639321753));
#218=ORIENTED_EDGE('',*,*,#219,.T.);
#219=EDGE_CURVE('',#212,#171,#220,.T.);
#220=LINE('',#221,#79);
#221=CARTESIAN_POINT('',(-38.525,5.1625,14.95));
#222=PLANE('',#223);
#223=AXIS2_PLACEMENT_3D('',#78,#14,#80);
#224=ADVANCED_FACE('',(#225),#290,.T.);
#225=FACE_BOUND('',#226,.T.);
#226=EDGE_LOOP('',(#227,#177,#36,#235,#241,#247,#48,#251,#257,#261,#56,#265,#270,#276,#281,#286));
#227=ORIENTED_EDGE('',*,*,#228,.F.);
#228=EDGE_CURVE('',#169,#229,#231,.T.);
#229=VERTEX_POINT('',#230);
#230=CARTESIAN_POINT('',(-36.525,-10.32173947368,9.6));
#231=LINE('',#232,#233);
#232=CARTESIAN_POINT('',(-19.2625,-10.32173947368,9.6));
#233=VECTOR('',#234,1.);
#234=DIRECTION('',(1.,-0.,0.));
#235=ORIENTED_EDGE('',*,*,#236,.T.);
#236=EDGE_CURVE('',#38,#237,#239,.T.);
#237=VERTEX_POINT('',#238);
#238=CARTESIAN_POINT('',(-29.525,-9.,9.6));
#239=LINE('',#240,#87);
#240=CARTESIAN_POINT('',(-29.525,-20.65,9.6));
#241=ORIENTED_EDGE('',*,*,#242,.T.);
#242=EDGE_CURVE('',#237,#243,#245,.T.);
#243=VERTEX_POINT('',#244);
#244=CARTESIAN_POINT('',(-19.,-9.,9.6));
#245=LINE('',#246,#27);
#246=CARTESIAN_POINT('',(-36.525,-9.,9.6));
#247=ORIENTED_EDGE('',*,*,#248,.T.);
#248=EDGE_CURVE('',#243,#45,#249,.T.);
#249=LINE('',#250,#79);
#250=CARTESIAN_POINT('',(-19.,41.3,9.6));
#251=ORIENTED_EDGE('',*,*,#252,.T.);
#252=EDGE_CURVE('',#50,#253,#255,.T.);
#253=VERTEX_POINT('',#254);
#254=CARTESIAN_POINT('',(19.,-9.,9.6));
#255=LINE('',#256,#87);
#256=CARTESIAN_POINT('',(19.,-41.3,9.6));
#257=ORIENTED_EDGE('',*,*,#258,.T.);
#258=EDGE_CURVE('',#253,#259,#245,.T.);
#259=VERTEX_POINT('',#260);
#260=CARTESIAN_POINT('',(29.525,-9.,9.6));
#261=ORIENTED_EDGE('',*,*,#262,.T.);
#262=EDGE_CURVE('',#259,#54,#263,.T.);
#263=LINE('',#264,#79);
#264=CARTESIAN_POINT('',(29.525,61.95,9.6));
#265=ORIENTED_EDGE('',*,*,#266,.T.);
#266=EDGE_CURVE('',#58,#267,#269,.T.);
#267=VERTEX_POINT('',#268);
#268=CARTESIAN_POINT('',(38.525,-10.32173947368,9.6));
#269=LINE('',#59,#87);
#270=ORIENTED_EDGE('',*,*,#271,.F.);
#271=EDGE_CURVE('',#272,#267,#274,.T.);
#272=VERTEX_POINT('',#273);
#273=CARTESIAN_POINT('',(36.525,-10.32173947368,9.6));
#274=LINE('',#275,#233);
#275=CARTESIAN_POINT('',(18.2625,-10.32173947368,9.6));
#276=ORIENTED_EDGE('',*,*,#277,.T.);
#277=EDGE_CURVE('',#272,#278,#280,.T.);
#278=VERTEX_POINT('',#279);
#279=CARTESIAN_POINT('',(36.525,-8.994998610339,9.6));
#280=LINE('',#273,#87);
#281=ORIENTED_EDGE('',*,*,#282,.T.);
#282=EDGE_CURVE('',#278,#283,#285,.T.);
#283=VERTEX_POINT('',#284);
#284=CARTESIAN_POINT('',(-36.525,-8.994998610339,9.6));
#285=LINE('',#279,#41);
#286=ORIENTED_EDGE('',*,*,#287,.T.);
#287=EDGE_CURVE('',#283,#229,#288,.T.);
#288=LINE('',#289,#79);
#289=CARTESIAN_POINT('',(-36.525,10.321739473684,9.6));
#290=PLANE('',#291);
#291=AXIS2_PLACEMENT_3D('',#292,#13,#14);
#292=CARTESIAN_POINT('',(-5.818159555866E-16,0.,9.6));
#293=ADVANCED_FACE('',(#294),#317,.T.);
#294=FACE_BOUND('',#295,.F.);
#295=EDGE_LOOP('',(#296,#297,#304,#312));
#296=ORIENTED_EDGE('',*,*,#44,.F.);
#297=ORIENTED_EDGE('',*,*,#298,.T.);
#298=EDGE_CURVE('',#38,#299,#301,.T.);
#299=VERTEX_POINT('',#300);
#300=CARTESIAN_POINT('',(-29.525,-9.,14.300465402489));
#301=CIRCLE('',#302,9.);
#302=AXIS2_PLACEMENT_3D('',#303,#42,#69);
#303=CARTESIAN_POINT('',(-29.525,-1.325,9.6));
#304=ORIENTED_EDGE('',*,*,#305,.F.);
#305=EDGE_CURVE('',#306,#299,#308,.T.);
#306=VERTEX_POINT('',#307);
#307=CARTESIAN_POINT('',(-19.,-9.,14.300465402489));
#308=LINE('',#309,#310);
#309=CARTESIAN_POINT('',(-32.5,-9.,14.300465402489));
#310=VECTOR('',#311,1.);
#311=DIRECTION('',(-1.,-0.,-0.));
#312=ORIENTED_EDGE('',*,*,#313,.F.);
#313=EDGE_CURVE('',#45,#306,#314,.T.);
#314=CIRCLE('',#315,9.);
#315=AXIS2_PLACEMENT_3D('',#316,#42,#69);
#316=CARTESIAN_POINT('',(-19.,-1.325,9.6));
#317=CYLINDRICAL_SURFACE('',#318,9.);
#318=AXIS2_PLACEMENT_3D('',#319,#311,#69);
#319=CARTESIAN_POINT('',(-32.5,-1.325,9.6));
#320=ADVANCED_FACE('',(#321),#317,.T.);
#321=FACE_BOUND('',#322,.F.);
#322=EDGE_LOOP('',(#323,#324,#331,#335));
#323=ORIENTED_EDGE('',*,*,#53,.F.);
#324=ORIENTED_EDGE('',*,*,#325,.T.);
#325=EDGE_CURVE('',#50,#326,#328,.T.);
#326=VERTEX_POINT('',#327);
#327=CARTESIAN_POINT('',(19.,-9.,14.300465402489));
#328=CIRCLE('',#329,9.);
#329=AXIS2_PLACEMENT_3D('',#330,#42,#69);
#330=CARTESIAN_POINT('',(19.,-1.325,9.6));
#331=ORIENTED_EDGE('',*,*,#332,.F.);
#332=EDGE_CURVE('',#333,#326,#308,.T.);
#333=VERTEX_POINT('',#334);
#334=CARTESIAN_POINT('',(29.525,-9.,14.300465402489));
#335=ORIENTED_EDGE('',*,*,#336,.F.);
#336=EDGE_CURVE('',#54,#333,#337,.T.);
#337=CIRCLE('',#338,9.);
#338=AXIS2_PLACEMENT_3D('',#339,#42,#69);
#339=CARTESIAN_POINT('',(29.525,-1.325,9.6));
#340=ADVANCED_FACE('',(#341),#389,.F.);
#341=FACE_BOUND('',#342,.F.);
#342=EDGE_LOOP('',(#343,#344,#265,#345,#351,#359,#367,#371,#374,#375,#380,#386));
#343=ORIENTED_EDGE('',*,*,#83,.F.);
#344=ORIENTED_EDGE('',*,*,#64,.T.);
#345=ORIENTED_EDGE('',*,*,#346,.T.);
#346=EDGE_CURVE('',#267,#347,#349,.T.);
#347=VERTEX_POINT('',#348);
#348=CARTESIAN_POINT('',(38.525,-7.385363815789,14.95));
#349=LINE('',#350,#175);
#350=CARTESIAN_POINT('',(38.525,-9.054211815918,11.909402392306));
#351=ORIENTED_EDGE('',*,*,#352,.T.);
#352=EDGE_CURVE('',#347,#353,#355,.T.);
#353=VERTEX_POINT('',#354);
#354=CARTESIAN_POINT('',(38.525,7.385363815789,14.95));
#355=LINE('',#356,#357);
#356=CARTESIAN_POINT('',(38.525,-5.1625,14.95));
#357=VECTOR('',#358,1.);
#358=DIRECTION('',(0.,1.,-0.));
#359=ORIENTED_EDGE('',*,*,#360,.T.);
#360=EDGE_CURVE('',#353,#361,#363,.T.);
#361=VERTEX_POINT('',#362);
#362=CARTESIAN_POINT('',(38.525,10.321739473684,9.6));
#363=LINE('',#364,#365);
#364=CARTESIAN_POINT('',(38.525,6.663938182997,16.264418720595));
#365=VECTOR('',#366,1.);
#366=DIRECTION('',(0.,0.481148105635,-0.876639321753));
#367=ORIENTED_EDGE('',*,*,#368,.T.);
#368=EDGE_CURVE('',#361,#369,#269,.T.);
#369=VERTEX_POINT('',#370);
#370=CARTESIAN_POINT('',(38.525,10.325,9.6));
#371=ORIENTED_EDGE('',*,*,#372,.F.);
#372=EDGE_CURVE('',#106,#369,#373,.T.);
#373=LINE('',#107,#66);
#374=ORIENTED_EDGE('',*,*,#105,.F.);
#375=ORIENTED_EDGE('',*,*,#376,.T.);
#376=EDGE_CURVE('',#100,#377,#379,.T.);
#377=VERTEX_POINT('',#378);
#378=CARTESIAN_POINT('',(38.525,3.175,0.3));
#379=LINE('',#101,#66);
#380=ORIENTED_EDGE('',*,*,#381,.F.);
#381=EDGE_CURVE('',#382,#377,#384,.T.);
#382=VERTEX_POINT('',#383);
#383=CARTESIAN_POINT('',(38.525,-3.175,0.3));
#384=LINE('',#385,#357);
#385=CARTESIAN_POINT('',(38.525,-5.1625,0.3));
#386=ORIENTED_EDGE('',*,*,#387,.T.);
#387=EDGE_CURVE('',#382,#84,#388,.T.);
#388=LINE('',#85,#34);
#389=PLANE('',#390);
#390=AXIS2_PLACEMENT_3D('',#25,#42,#69);
#391=ADVANCED_FACE('',(#392),#161,.F.);
#392=FACE_BOUND('',#393,.F.);
#393=EDGE_LOOP('',(#394,#396,#397,#398));
#394=ORIENTED_EDGE('',*,*,#395,.T.);
#395=EDGE_CURVE('',#114,#75,#77,.T.);
#396=ORIENTED_EDGE('',*,*,#127,.T.);
#397=ORIENTED_EDGE('',*,*,#122,.T.);
#398=ORIENTED_EDGE('',*,*,#117,.T.);
#399=ADVANCED_FACE('',(#400),#429,.F.);
#400=FACE_BOUND('',#401,.F.);
#401=EDGE_LOOP('',(#402,#403,#404,#411,#417,#421,#425,#428));
#402=ORIENTED_EDGE('',*,*,#109,.F.);
#403=ORIENTED_EDGE('',*,*,#372,.T.);
#404=ORIENTED_EDGE('',*,*,#405,.F.);
#405=EDGE_CURVE('',#406,#369,#408,.T.);
#406=VERTEX_POINT('',#407);
#407=CARTESIAN_POINT('',(29.525,10.325,9.6));
#408=LINE('',#407,#409);
#409=VECTOR('',#410,1.);
#410=DIRECTION('',(1.,1.973729821556E-16,0.));
#411=ORIENTED_EDGE('',*,*,#412,.F.);
#412=EDGE_CURVE('',#413,#406,#415,.T.);
#413=VERTEX_POINT('',#414);
#414=CARTESIAN_POINT('',(19.,10.325,9.6));
#415=LINE('',#416,#27);
#416=CARTESIAN_POINT('',(-32.5,10.325,9.6));
#417=ORIENTED_EDGE('',*,*,#418,.F.);
#418=EDGE_CURVE('',#419,#413,#415,.T.);
#419=VERTEX_POINT('',#420);
#420=CARTESIAN_POINT('',(-19.,10.325,9.6));
#421=ORIENTED_EDGE('',*,*,#422,.F.);
#422=EDGE_CURVE('',#423,#419,#415,.T.);
#423=VERTEX_POINT('',#424);
#424=CARTESIAN_POINT('',(-29.525,10.325,9.6));
#425=ORIENTED_EDGE('',*,*,#426,.F.);
#426=EDGE_CURVE('',#204,#423,#427,.T.);
#427=LINE('',#180,#27);
#428=ORIENTED_EDGE('',*,*,#203,.T.);
#429=PLANE('',#430);
#430=AXIS2_PLACEMENT_3D('',#107,#80,#42);
#431=ADVANCED_FACE('',(#432),#161,.F.);
#432=FACE_BOUND('',#433,.F.);
#433=EDGE_LOOP('',(#434,#435,#437,#438));
#434=ORIENTED_EDGE('',*,*,#89,.T.);
#435=ORIENTED_EDGE('',*,*,#436,.T.);
#436=EDGE_CURVE('',#84,#100,#86,.T.);
#437=ORIENTED_EDGE('',*,*,#99,.T.);
#438=ORIENTED_EDGE('',*,*,#94,.T.);
#439=ADVANCED_FACE('',(#440),#455,.T.);
#440=FACE_BOUND('',#441,.T.);
#441=EDGE_LOOP('',(#442,#449,#454,#132));
#442=ORIENTED_EDGE('',*,*,#443,.T.);
#443=EDGE_CURVE('',#134,#444,#446,.T.);
#444=VERTEX_POINT('',#445);
#445=CARTESIAN_POINT('',(36.625,-8.,-0.856363636364));
#446=LINE('',#135,#447);
#447=VECTOR('',#448,1.);
#448=DIRECTION('',(-0.,-0.,-1.));
#449=ORIENTED_EDGE('',*,*,#450,.T.);
#450=EDGE_CURVE('',#444,#444,#451,.T.);
#451=CIRCLE('',#452,0.785);
#452=AXIS2_PLACEMENT_3D('',#453,#13,#14);
#453=CARTESIAN_POINT('',(35.84,-8.,-0.856363636364));
#454=ORIENTED_EDGE('',*,*,#443,.F.);
#455=CYLINDRICAL_SURFACE('',#137,0.785);
#456=ADVANCED_FACE('',(#457),#463,.F.);
#457=FACE_BOUND('',#458,.F.);
#458=EDGE_LOOP('',(#459,#460,#461,#462));
#459=ORIENTED_EDGE('',*,*,#142,.T.);
#460=ORIENTED_EDGE('',*,*,#159,.T.);
#461=ORIENTED_EDGE('',*,*,#154,.T.);
#462=ORIENTED_EDGE('',*,*,#149,.T.);
#463=PLANE('',#464);
#464=AXIS2_PLACEMENT_3D('',#465,#13,#14);
#465=CARTESIAN_POINT('',(36.525,0.,1.E-01));
#466=ADVANCED_FACE('',(#467),#479,.F.);
#467=FACE_BOUND('',#468,.T.);
#468=EDGE_LOOP('',(#167,#469,#470,#475));
#469=ORIENTED_EDGE('',*,*,#228,.T.);
#470=ORIENTED_EDGE('',*,*,#471,.T.);
#471=EDGE_CURVE('',#229,#472,#474,.T.);
#472=VERTEX_POINT('',#473);
#473=CARTESIAN_POINT('',(-36.525,-7.385363815789,14.95));
#474=LINE('',#230,#175);
#475=ORIENTED_EDGE('',*,*,#476,.T.);
#476=EDGE_CURVE('',#472,#171,#477,.T.);
#477=LINE('',#478,#41);
#478=CARTESIAN_POINT('',(-19.2625,-7.385363815789,14.95));
#479=PLANE('',#480);
#480=AXIS2_PLACEMENT_3D('',#481,#482,#311);
#481=CARTESIAN_POINT('',(-38.525,-7.74375,14.29702970297));
#482=DIRECTION('',(0.,0.876639321753,-0.481148105635));
#483=ADVANCED_FACE('',(#484),#522,.T.);
#484=FACE_BOUND('',#485,.T.);
#485=EDGE_LOOP('',(#486,#493,#218,#499,#500,#504,#512,#518));
#486=ORIENTED_EDGE('',*,*,#487,.T.);
#487=EDGE_CURVE('',#488,#490,#492,.T.);
#488=VERTEX_POINT('',#489);
#489=CARTESIAN_POINT('',(-36.525,4.19732057389,14.95));
#490=VERTEX_POINT('',#491);
#491=CARTESIAN_POINT('',(-36.525,7.385363815789,14.95));
#492=LINE('',#473,#87);
#493=ORIENTED_EDGE('',*,*,#494,.T.);
#494=EDGE_CURVE('',#490,#212,#495,.T.);
#495=LINE('',#496,#497);
#496=CARTESIAN_POINT('',(-18.2625,7.385363815789,14.95));
#497=VECTOR('',#498,1.);
#498=DIRECTION('',(-1.,-0.,0.));
#499=ORIENTED_EDGE('',*,*,#476,.F.);
#500=ORIENTED_EDGE('',*,*,#501,.T.);
#501=EDGE_CURVE('',#472,#502,#492,.T.);
#502=VERTEX_POINT('',#503);
#503=CARTESIAN_POINT('',(-36.525,-4.19732057389,14.95));
#504=ORIENTED_EDGE('',*,*,#505,.F.);
#505=EDGE_CURVE('',#506,#502,#508,.T.);
#506=VERTEX_POINT('',#507);
#507=CARTESIAN_POINT('',(-37.0275,-4.19732057389,14.95));
#508=LINE('',#509,#510);
#509=CARTESIAN_POINT('',(-36.515,-4.19732057389,14.95));
#510=VECTOR('',#511,1.);
#511=DIRECTION('',(1.,-0.,-0.));
#512=ORIENTED_EDGE('',*,*,#513,.F.);
#513=EDGE_CURVE('',#514,#506,#516,.T.);
#514=VERTEX_POINT('',#515);
#515=CARTESIAN_POINT('',(-37.0275,4.19732057389,14.95));
#516=LINE('',#517,#79);
#517=CARTESIAN_POINT('',(-37.0275,2.328868653633E-16,14.95));
#518=ORIENTED_EDGE('',*,*,#519,.T.);
#519=EDGE_CURVE('',#514,#488,#520,.T.);
#520=LINE('',#521,#510);
#521=CARTESIAN_POINT('',(-36.515,4.19732057389,14.95));
#522=PLANE('',#523);
#523=AXIS2_PLACEMENT_3D('',#524,#13,#14);
#524=CARTESIAN_POINT('',(-5.589323388477E-16,0.,14.95));
#525=ADVANCED_FACE('',(#526),#538,.F.);
#526=FACE_BOUND('',#527,.F.);
#527=EDGE_LOOP('',(#528,#493,#532,#533));
#528=ORIENTED_EDGE('',*,*,#529,.F.);
#529=EDGE_CURVE('',#490,#530,#531,.T.);
#530=VERTEX_POINT('',#289);
#531=LINE('',#491,#365);
#532=ORIENTED_EDGE('',*,*,#211,.T.);
#533=ORIENTED_EDGE('',*,*,#534,.T.);
#534=EDGE_CURVE('',#208,#530,#535,.T.);
#535=LINE('',#536,#537);
#536=CARTESIAN_POINT('',(-18.2625,10.321739473684,9.6));
#537=VECTOR('',#14,1.);
#538=PLANE('',#539);
#539=AXIS2_PLACEMENT_3D('',#540,#541,#498);
#540=CARTESIAN_POINT('',(-36.525,7.74375,14.29702970297));
#541=DIRECTION('',(0.,-0.876639321753,-0.481148105635));
#542=ADVANCED_FACE('',(#543),#290,.T.);
#543=FACE_BOUND('',#544,.T.);
#544=EDGE_LOOP('',(#425,#206,#533,#545,#549,#554,#558,#367,#404,#562,#566,#572,#417,#574,#578,#582));
#545=ORIENTED_EDGE('',*,*,#546,.T.);
#546=EDGE_CURVE('',#530,#547,#288,.T.);
#547=VERTEX_POINT('',#548);
#548=CARTESIAN_POINT('',(-36.525,8.994998610339,9.6));
#549=ORIENTED_EDGE('',*,*,#550,.T.);
#550=EDGE_CURVE('',#547,#551,#553,.T.);
#551=VERTEX_POINT('',#552);
#552=CARTESIAN_POINT('',(36.525,8.994998610339,9.6));
#553=LINE('',#548,#27);
#554=ORIENTED_EDGE('',*,*,#555,.T.);
#555=EDGE_CURVE('',#551,#556,#280,.T.);
#556=VERTEX_POINT('',#557);
#557=CARTESIAN_POINT('',(36.525,10.321739473684,9.6));
#558=ORIENTED_EDGE('',*,*,#559,.T.);
#559=EDGE_CURVE('',#556,#361,#560,.T.);
#560=LINE('',#561,#537);
#561=CARTESIAN_POINT('',(19.2625,10.321739473684,9.6));
#562=ORIENTED_EDGE('',*,*,#563,.T.);
#563=EDGE_CURVE('',#406,#564,#263,.T.);
#564=VERTEX_POINT('',#565);
#565=CARTESIAN_POINT('',(29.525,9.,9.6));
#566=ORIENTED_EDGE('',*,*,#567,.T.);
#567=EDGE_CURVE('',#564,#568,#570,.T.);
#568=VERTEX_POINT('',#569);
#569=CARTESIAN_POINT('',(19.,9.,9.6));
#570=LINE('',#571,#41);
#571=CARTESIAN_POINT('',(36.525,9.,9.6));
#572=ORIENTED_EDGE('',*,*,#573,.T.);
#573=EDGE_CURVE('',#568,#413,#255,.T.);
#574=ORIENTED_EDGE('',*,*,#575,.T.);
#575=EDGE_CURVE('',#419,#576,#249,.T.);
#576=VERTEX_POINT('',#577);
#577=CARTESIAN_POINT('',(-19.,9.,9.6));
#578=ORIENTED_EDGE('',*,*,#579,.T.);
#579=EDGE_CURVE('',#576,#580,#570,.T.);
#580=VERTEX_POINT('',#581);
#581=CARTESIAN_POINT('',(-29.525,9.,9.6));
#582=ORIENTED_EDGE('',*,*,#583,.T.);
#583=EDGE_CURVE('',#580,#423,#239,.T.);
#584=ADVANCED_FACE('',(#585),#601,.F.);
#585=FACE_BOUND('',#586,.F.);
#586=EDGE_LOOP('',(#587,#591,#592,#598));
#587=ORIENTED_EDGE('',*,*,#588,.F.);
#588=EDGE_CURVE('',#114,#589,#120,.T.);
#589=VERTEX_POINT('',#590);
#590=CARTESIAN_POINT('',(-43.01,3.175,0.1));
#591=ORIENTED_EDGE('',*,*,#197,.F.);
#592=ORIENTED_EDGE('',*,*,#593,.T.);
#593=EDGE_CURVE('',#192,#594,#596,.T.);
#594=VERTEX_POINT('',#595);
#595=CARTESIAN_POINT('',(-43.01,3.175,0.3));
#596=LINE('',#597,#41);
#597=CARTESIAN_POINT('',(-38.51,3.175,0.3));
#598=ORIENTED_EDGE('',*,*,#599,.F.);
#599=EDGE_CURVE('',#589,#594,#600,.T.);
#600=LINE('',#590,#66);
#601=PLANE('',#602);
#602=AXIS2_PLACEMENT_3D('',#119,#80,#42);
#603=ADVANCED_FACE('',(#604),#614,.T.);
#604=FACE_BOUND('',#605,.T.);
#605=EDGE_LOOP('',(#606,#611,#190,#592));
#606=ORIENTED_EDGE('',*,*,#607,.T.);
#607=EDGE_CURVE('',#594,#608,#610,.T.);
#608=VERTEX_POINT('',#609);
#609=CARTESIAN_POINT('',(-43.01,-3.175,0.3));
#610=LINE('',#595,#79);
#611=ORIENTED_EDGE('',*,*,#612,.T.);
#612=EDGE_CURVE('',#608,#185,#613,.T.);
#613=LINE('',#609,#27);
#614=PLANE('',#615);
#615=AXIS2_PLACEMENT_3D('',#616,#13,#14);
#616=CARTESIAN_POINT('',(-40.76,0.,0.3));
#617=ADVANCED_FACE('',(#618),#627,.F.);
#618=FACE_BOUND('',#619,.F.);
#619=EDGE_LOOP('',(#620,#623,#611,#626));
#620=ORIENTED_EDGE('',*,*,#621,.F.);
#621=EDGE_CURVE('',#622,#75,#128,.T.);
#622=VERTEX_POINT('',#129);
#623=ORIENTED_EDGE('',*,*,#624,.T.);
#624=EDGE_CURVE('',#622,#608,#625,.T.);
#625=LINE('',#129,#66);
#626=ORIENTED_EDGE('',*,*,#184,.F.);
#627=PLANE('',#628);
#628=AXIS2_PLACEMENT_3D('',#129,#69,#28);
#629=ADVANCED_FACE('',(#630),#636,.T.);
#630=FACE_BOUND('',#631,.T.);
#631=EDGE_LOOP('',(#632,#297,#633));
#632=ORIENTED_EDGE('',*,*,#236,.F.);
#633=ORIENTED_EDGE('',*,*,#634,.F.);
#634=EDGE_CURVE('',#237,#299,#635,.T.);
#635=LINE('',#238,#188);
#636=PLANE('',#637);
#637=AXIS2_PLACEMENT_3D('',#240,#42,#69);
#638=ADVANCED_FACE('',(#639),#648,.T.);
#639=FACE_BOUND('',#640,.T.);
#640=EDGE_LOOP('',(#641,#642,#304,#643));
#641=ORIENTED_EDGE('',*,*,#242,.F.);
#642=ORIENTED_EDGE('',*,*,#634,.T.);
#643=ORIENTED_EDGE('',*,*,#644,.T.);
#644=EDGE_CURVE('',#306,#243,#645,.T.);
#645=LINE('',#244,#646);
#646=VECTOR('',#647,1.);
#647=DIRECTION('',(-0.,0.,-1.));
#648=PLANE('',#649);
#649=AXIS2_PLACEMENT_3D('',#246,#69,#28);
#650=ADVANCED_FACE('',(#651),#655,.T.);
#651=FACE_BOUND('',#652,.T.);
#652=EDGE_LOOP('',(#312,#653,#654));
#653=ORIENTED_EDGE('',*,*,#248,.F.);
#654=ORIENTED_EDGE('',*,*,#644,.F.);
#655=PLANE('',#656);
#656=AXIS2_PLACEMENT_3D('',#250,#14,#80);
#657=ADVANCED_FACE('',(#658),#664,.T.);
#658=FACE_BOUND('',#659,.T.);
#659=EDGE_LOOP('',(#660,#324,#661));
#660=ORIENTED_EDGE('',*,*,#252,.F.);
#661=ORIENTED_EDGE('',*,*,#662,.F.);
#662=EDGE_CURVE('',#253,#326,#663,.T.);
#663=LINE('',#254,#188);
#664=PLANE('',#665);
#665=AXIS2_PLACEMENT_3D('',#256,#42,#69);
#666=ADVANCED_FACE('',(#667),#648,.T.);
#667=FACE_BOUND('',#668,.T.);
#668=EDGE_LOOP('',(#669,#670,#331,#671));
#669=ORIENTED_EDGE('',*,*,#258,.F.);
#670=ORIENTED_EDGE('',*,*,#662,.T.);
#671=ORIENTED_EDGE('',*,*,#672,.T.);
#672=EDGE_CURVE('',#333,#259,#673,.T.);
#673=LINE('',#260,#646);
#674=ADVANCED_FACE('',(#675),#679,.T.);
#675=FACE_BOUND('',#676,.T.);
#676=EDGE_LOOP('',(#335,#677,#678));
#677=ORIENTED_EDGE('',*,*,#262,.F.);
#678=ORIENTED_EDGE('',*,*,#672,.F.);
#679=PLANE('',#680);
#680=AXIS2_PLACEMENT_3D('',#264,#14,#80);
#681=ADVANCED_FACE('',(#682),#694,.F.);
#682=FACE_BOUND('',#683,.T.);
#683=EDGE_LOOP('',(#684,#689,#345,#690));
#684=ORIENTED_EDGE('',*,*,#685,.F.);
#685=EDGE_CURVE('',#272,#686,#688,.T.);
#686=VERTEX_POINT('',#687);
#687=CARTESIAN_POINT('',(36.525,-7.385363815789,14.95));
#688=LINE('',#273,#175);
#689=ORIENTED_EDGE('',*,*,#271,.T.);
#690=ORIENTED_EDGE('',*,*,#691,.T.);
#691=EDGE_CURVE('',#347,#686,#692,.T.);
#692=LINE('',#693,#41);
#693=CARTESIAN_POINT('',(18.2625,-7.385363815789,14.95));
#694=PLANE('',#695);
#695=AXIS2_PLACEMENT_3D('',#696,#482,#311);
#696=CARTESIAN_POINT('',(36.525,-7.74375,14.29702970297));
#697=ADVANCED_FACE('',(#698),#736,.F.);
#698=FACE_BOUND('',#699,.F.);
#699=EDGE_LOOP('',(#684,#276,#700,#708,#714,#720,#726,#554,#728,#733));
#700=ORIENTED_EDGE('',*,*,#701,.T.);
#701=EDGE_CURVE('',#278,#702,#704,.T.);
#702=VERTEX_POINT('',#703);
#703=CARTESIAN_POINT('',(36.525,-4.5,1.50577136594));
#704=CIRCLE('',#705,9.);
#705=AXIS2_PLACEMENT_3D('',#706,#28,#707);
#706=CARTESIAN_POINT('',(36.525,0.,9.3));
#707=DIRECTION('',(0.,-0.999444290038,3.333333333334E-02));
#708=ORIENTED_EDGE('',*,*,#709,.T.);
#709=EDGE_CURVE('',#702,#710,#712,.T.);
#710=VERTEX_POINT('',#711);
#711=CARTESIAN_POINT('',(36.525,-4.5,11.245));
#712=LINE('',#713,#188);
#713=CARTESIAN_POINT('',(36.525,-4.5,4.8));
#714=ORIENTED_EDGE('',*,*,#715,.F.);
#715=EDGE_CURVE('',#716,#710,#718,.T.);
#716=VERTEX_POINT('',#717);
#717=CARTESIAN_POINT('',(36.525,4.5,11.245));
#718=LINE('',#719,#79);
#719=CARTESIAN_POINT('',(36.525,5.1625,11.245));
#720=ORIENTED_EDGE('',*,*,#721,.T.);
#721=EDGE_CURVE('',#716,#722,#724,.T.);
#722=VERTEX_POINT('',#723);
#723=CARTESIAN_POINT('',(36.525,4.5,1.50577136594));
#724=LINE('',#725,#199);
#725=CARTESIAN_POINT('',(36.525,4.5,4.8));
#726=ORIENTED_EDGE('',*,*,#727,.T.);
#727=EDGE_CURVE('',#722,#551,#704,.T.);
#728=ORIENTED_EDGE('',*,*,#729,.F.);
#729=EDGE_CURVE('',#730,#556,#732,.T.);
#730=VERTEX_POINT('',#731);
#731=CARTESIAN_POINT('',(36.525,7.385363815789,14.95));
#732=LINE('',#731,#365);
#733=ORIENTED_EDGE('',*,*,#734,.F.);
#734=EDGE_CURVE('',#686,#730,#735,.T.);
#735=LINE('',#687,#87);
#736=PLANE('',#737);
#737=AXIS2_PLACEMENT_3D('',#738,#14,#80);
#738=CARTESIAN_POINT('',(36.525,10.325,9.5));
#739=ADVANCED_FACE('',(#740),#766,.F.);
#740=FACE_BOUND('',#741,.T.);
#741=EDGE_LOOP('',(#742,#700,#743,#749,#756,#726,#760,#761));
#742=ORIENTED_EDGE('',*,*,#282,.F.);
#743=ORIENTED_EDGE('',*,*,#744,.T.);
#744=EDGE_CURVE('',#702,#745,#747,.T.);
#745=VERTEX_POINT('',#746);
#746=CARTESIAN_POINT('',(36.475,-4.5,1.50577136594));
#747=LINE('',#748,#310);
#748=CARTESIAN_POINT('',(-36.525,-4.5,1.50577136594));
#749=ORIENTED_EDGE('',*,*,#750,.F.);
#750=EDGE_CURVE('',#751,#745,#753,.T.);
#751=VERTEX_POINT('',#752);
#752=CARTESIAN_POINT('',(36.475,4.5,1.50577136594));
#753=CIRCLE('',#754,9.);
#754=AXIS2_PLACEMENT_3D('',#755,#42,#69);
#755=CARTESIAN_POINT('',(36.475,0.,9.3));
#756=ORIENTED_EDGE('',*,*,#757,.F.);
#757=EDGE_CURVE('',#722,#751,#758,.T.);
#758=LINE('',#759,#310);
#759=CARTESIAN_POINT('',(-36.525,4.5,1.50577136594));
#760=ORIENTED_EDGE('',*,*,#550,.F.);
#761=ORIENTED_EDGE('',*,*,#762,.F.);
#762=EDGE_CURVE('',#283,#547,#763,.T.);
#763=CIRCLE('',#764,9.);
#764=AXIS2_PLACEMENT_3D('',#765,#28,#707);
#765=CARTESIAN_POINT('',(-36.525,0.,9.3));
#766=CYLINDRICAL_SURFACE('',#767,9.);
#767=AXIS2_PLACEMENT_3D('',#765,#311,#69);
#768=ADVANCED_FACE('',(#769),#777,.F.);
#769=FACE_BOUND('',#770,.F.);
#770=EDGE_LOOP('',(#771,#545,#761,#286,#470,#500,#772,#486));
#771=ORIENTED_EDGE('',*,*,#529,.T.);
#772=ORIENTED_EDGE('',*,*,#773,.T.);
#773=EDGE_CURVE('',#502,#488,#774,.T.);
#774=CIRCLE('',#775,7.2);
#775=AXIS2_PLACEMENT_3D('',#776,#14,#13);
#776=CARTESIAN_POINT('',(-36.525,0.,9.1));
#777=PLANE('',#778);
#778=AXIS2_PLACEMENT_3D('',#779,#42,#69);
#779=CARTESIAN_POINT('',(-36.525,-10.325,9.5));
#780=ADVANCED_FACE('',(#781),#797,.F.);
#781=FACE_BOUND('',#782,.F.);
#782=EDGE_LOOP('',(#783,#787,#788,#794));
#783=ORIENTED_EDGE('',*,*,#784,.F.);
#784=EDGE_CURVE('',#84,#785,#92,.T.);
#785=VERTEX_POINT('',#786);
#786=CARTESIAN_POINT('',(43.01,-3.175,0.1));
#787=ORIENTED_EDGE('',*,*,#387,.F.);
#788=ORIENTED_EDGE('',*,*,#789,.T.);
#789=EDGE_CURVE('',#382,#790,#792,.T.);
#790=VERTEX_POINT('',#791);
#791=CARTESIAN_POINT('',(43.01,-3.175,0.3));
#792=LINE('',#793,#27);
#793=CARTESIAN_POINT('',(38.51,-3.175,0.3));
#794=ORIENTED_EDGE('',*,*,#795,.F.);
#795=EDGE_CURVE('',#785,#790,#796,.T.);
#796=LINE('',#786,#66);
#797=PLANE('',#798);
#798=AXIS2_PLACEMENT_3D('',#91,#69,#28);
#799=ADVANCED_FACE('',(#800),#810,.T.);
#800=FACE_BOUND('',#801,.T.);
#801=EDGE_LOOP('',(#380,#788,#802,#807));
#802=ORIENTED_EDGE('',*,*,#803,.T.);
#803=EDGE_CURVE('',#790,#804,#806,.T.);
#804=VERTEX_POINT('',#805);
#805=CARTESIAN_POINT('',(43.01,3.175,0.3));
#806=LINE('',#791,#87);
#807=ORIENTED_EDGE('',*,*,#808,.T.);
#808=EDGE_CURVE('',#804,#377,#809,.T.);
#809=LINE('',#805,#41);
#810=PLANE('',#811);
#811=AXIS2_PLACEMENT_3D('',#812,#13,#14);
#812=CARTESIAN_POINT('',(40.76,0.,0.3));
#813=ADVANCED_FACE('',(#814),#823,.F.);
#814=FACE_BOUND('',#815,.F.);
#815=EDGE_LOOP('',(#816,#819,#807,#822));
#816=ORIENTED_EDGE('',*,*,#817,.F.);
#817=EDGE_CURVE('',#818,#100,#102,.T.);
#818=VERTEX_POINT('',#103);
#819=ORIENTED_EDGE('',*,*,#820,.T.);
#820=EDGE_CURVE('',#818,#804,#821,.T.);
#821=LINE('',#103,#66);
#822=ORIENTED_EDGE('',*,*,#376,.F.);
#823=PLANE('',#824);
#824=AXIS2_PLACEMENT_3D('',#103,#80,#42);
#825=ADVANCED_FACE('',(#826),#834,.F.);
#826=FACE_BOUND('',#827,.F.);
#827=EDGE_LOOP('',(#828,#829,#833,#558));
#828=ORIENTED_EDGE('',*,*,#360,.F.);
#829=ORIENTED_EDGE('',*,*,#830,.T.);
#830=EDGE_CURVE('',#353,#730,#831,.T.);
#831=LINE('',#832,#497);
#832=CARTESIAN_POINT('',(19.2625,7.385363815789,14.95));
#833=ORIENTED_EDGE('',*,*,#729,.T.);
#834=PLANE('',#835);
#835=AXIS2_PLACEMENT_3D('',#836,#541,#498);
#836=CARTESIAN_POINT('',(38.525,7.74375,14.29702970297));
#837=ADVANCED_FACE('',(#838),#522,.T.);
#838=FACE_BOUND('',#839,.T.);
#839=EDGE_LOOP('',(#840,#351,#829,#733));
#840=ORIENTED_EDGE('',*,*,#691,.F.);
#841=ADVANCED_FACE('',(#842),#850,.F.);
#842=FACE_BOUND('',#843,.F.);
#843=EDGE_LOOP('',(#844,#847,#848,#849));
#844=ORIENTED_EDGE('',*,*,#845,.T.);
#845=EDGE_CURVE('',#589,#622,#846,.T.);
#846=LINE('',#590,#79);
#847=ORIENTED_EDGE('',*,*,#621,.T.);
#848=ORIENTED_EDGE('',*,*,#395,.F.);
#849=ORIENTED_EDGE('',*,*,#588,.T.);
#850=PLANE('',#851);
#851=AXIS2_PLACEMENT_3D('',#852,#13,#14);
#852=CARTESIAN_POINT('',(-40.76,0.,0.1));
#853=ADVANCED_FACE('',(#854),#875,.T.);
#854=FACE_BOUND('',#855,.F.);
#855=EDGE_LOOP('',(#856,#863,#864,#871));
#856=ORIENTED_EDGE('',*,*,#857,.T.);
#857=EDGE_CURVE('',#858,#423,#860,.T.);
#858=VERTEX_POINT('',#859);
#859=CARTESIAN_POINT('',(-29.525,9.,14.300465402489));
#860=CIRCLE('',#861,9.);
#861=AXIS2_PLACEMENT_3D('',#862,#42,#69);
#862=CARTESIAN_POINT('',(-29.525,1.325,9.6));
#863=ORIENTED_EDGE('',*,*,#422,.T.);
#864=ORIENTED_EDGE('',*,*,#865,.F.);
#865=EDGE_CURVE('',#866,#419,#868,.T.);
#866=VERTEX_POINT('',#867);
#867=CARTESIAN_POINT('',(-19.,9.,14.300465402489));
#868=CIRCLE('',#869,9.);
#869=AXIS2_PLACEMENT_3D('',#870,#42,#69);
#870=CARTESIAN_POINT('',(-19.,1.325,9.6));
#871=ORIENTED_EDGE('',*,*,#872,.T.);
#872=EDGE_CURVE('',#866,#858,#873,.T.);
#873=LINE('',#874,#310);
#874=CARTESIAN_POINT('',(-32.5,9.,14.300465402489));
#875=CYLINDRICAL_SURFACE('',#876,9.);
#876=AXIS2_PLACEMENT_3D('',#877,#311,#69);
#877=CARTESIAN_POINT('',(-32.5,1.325,9.6));
#878=ADVANCED_FACE('',(#879),#875,.T.);
#879=FACE_BOUND('',#880,.F.);
#880=EDGE_LOOP('',(#881,#888,#892,#897));
#881=ORIENTED_EDGE('',*,*,#882,.F.);
#882=EDGE_CURVE('',#883,#406,#885,.T.);
#883=VERTEX_POINT('',#884);
#884=CARTESIAN_POINT('',(29.525,9.,14.300465402489));
#885=CIRCLE('',#886,9.);
#886=AXIS2_PLACEMENT_3D('',#887,#42,#69);
#887=CARTESIAN_POINT('',(29.525,1.325,9.6));
#888=ORIENTED_EDGE('',*,*,#889,.T.);
#889=EDGE_CURVE('',#883,#890,#873,.T.);
#890=VERTEX_POINT('',#891);
#891=CARTESIAN_POINT('',(19.,9.,14.300465402489));
#892=ORIENTED_EDGE('',*,*,#893,.T.);
#893=EDGE_CURVE('',#890,#413,#894,.T.);
#894=CIRCLE('',#895,9.);
#895=AXIS2_PLACEMENT_3D('',#896,#42,#69);
#896=CARTESIAN_POINT('',(19.,1.325,9.6));
#897=ORIENTED_EDGE('',*,*,#412,.T.);
#898=ADVANCED_FACE('',(#899),#907,.F.);
#899=FACE_BOUND('',#900,.F.);
#900=EDGE_LOOP('',(#901,#902,#903,#906));
#901=ORIENTED_EDGE('',*,*,#436,.F.);
#902=ORIENTED_EDGE('',*,*,#784,.T.);
#903=ORIENTED_EDGE('',*,*,#904,.T.);
#904=EDGE_CURVE('',#785,#818,#905,.T.);
#905=LINE('',#786,#87);
#906=ORIENTED_EDGE('',*,*,#817,.T.);
#907=PLANE('',#908);
#908=AXIS2_PLACEMENT_3D('',#909,#13,#14);
#909=CARTESIAN_POINT('',(40.76,0.,0.1));
#910=ADVANCED_FACE('',(#911),#927,.T.);
#911=FACE_BOUND('',#912,.F.);
#912=EDGE_LOOP('',(#913,#920,#921,#922));
#913=ORIENTED_EDGE('',*,*,#914,.F.);
#914=EDGE_CURVE('',#444,#915,#917,.T.);
#915=VERTEX_POINT('',#916);
#916=CARTESIAN_POINT('',(35.911363636364,-8.,-1.57));
#917=CIRCLE('',#918,0.713636363636);
#918=AXIS2_PLACEMENT_3D('',#919,#69,#14);
#919=CARTESIAN_POINT('',(35.911363636364,-8.,-0.856363636364));
#920=ORIENTED_EDGE('',*,*,#450,.F.);
#921=ORIENTED_EDGE('',*,*,#914,.T.);
#922=ORIENTED_EDGE('',*,*,#923,.T.);
#923=EDGE_CURVE('',#915,#915,#924,.T.);
#924=CIRCLE('',#925,7.136363636364E-02);
#925=AXIS2_PLACEMENT_3D('',#926,#13,#14);
#926=CARTESIAN_POINT('',(35.84,-8.,-1.57));
#927=SURFACE_OF_REVOLUTION('',#928,#937);
#928=B_SPLINE_CURVE_WITH_KNOTS('',5,(#445,#929,#930,#931,#932,#933,#934,#935,#936,#916),.UNSPECIFIED.,.F.,.F.,(6,4,6),(0.,0.785398163397,1.570796326795),.UNSPECIFIED.);
#929=CARTESIAN_POINT('',(36.625,-8.,-0.96846137423));
#930=CARTESIAN_POINT('',(36.60299459958,-8.,-1.080560888069));
#931=CARTESIAN_POINT('',(36.558951977536,-8.,-1.186889183528));
#932=CARTESIAN_POINT('',(36.495245818994,-8.,-1.281715677791));
#933=CARTESIAN_POINT('',(36.336715677791,-8.,-1.440245818993));
#934=CARTESIAN_POINT('',(36.241889183528,-8.,-1.503951977536));
#935=CARTESIAN_POINT('',(36.135560888069,-8.,-1.54799459958));
#936=CARTESIAN_POINT('',(36.02346137423,-8.,-1.57));
#937=AXIS1_PLACEMENT('',#453,#448);
#938=ADVANCED_FACE('',(#939),#962,.T.);
#939=FACE_BOUND('',#940,.F.);
#940=EDGE_LOOP('',(#941,#948,#953,#518,#958,#504,#959,#961));
#941=ORIENTED_EDGE('',*,*,#942,.F.);
#942=EDGE_CURVE('',#943,#943,#945,.T.);
#943=VERTEX_POINT('',#944);
#944=CARTESIAN_POINT('',(-36.515,0.,16.3));
#945=CIRCLE('',#946,7.2);
#946=AXIS2_PLACEMENT_3D('',#947,#42,#13);
#947=CARTESIAN_POINT('',(-36.515,0.,9.1));
#948=ORIENTED_EDGE('',*,*,#949,.T.);
#949=EDGE_CURVE('',#943,#950,#952,.T.);
#950=VERTEX_POINT('',#951);
#951=CARTESIAN_POINT('',(-37.0275,0.,16.3));
#952=LINE('',#944,#41);
#953=ORIENTED_EDGE('',*,*,#954,.T.);
#954=EDGE_CURVE('',#950,#514,#955,.T.);
#955=CIRCLE('',#956,7.2);
#956=AXIS2_PLACEMENT_3D('',#957,#42,#13);
#957=CARTESIAN_POINT('',(-37.0275,0.,9.1));
#958=ORIENTED_EDGE('',*,*,#773,.F.);
#959=ORIENTED_EDGE('',*,*,#960,.T.);
#960=EDGE_CURVE('',#506,#950,#955,.T.);
#961=ORIENTED_EDGE('',*,*,#949,.F.);
#962=CYLINDRICAL_SURFACE('',#963,7.2);
#963=AXIS2_PLACEMENT_3D('',#947,#511,#13);
#964=ADVANCED_FACE('',(#965),#968,.T.);
#965=FACE_BOUND('',#966,.T.);
#966=EDGE_LOOP('',(#959,#953,#967));
#967=ORIENTED_EDGE('',*,*,#513,.T.);
#968=PLANE('',#969);
#969=AXIS2_PLACEMENT_3D('',#970,#311,#35);
#970=CARTESIAN_POINT('',(-37.0275,4.657737307265E-16,9.1));
#971=ADVANCED_FACE('',(#972),#679,.T.);
#972=FACE_BOUND('',#973,.T.);
#973=EDGE_LOOP('',(#974,#881,#975));
#974=ORIENTED_EDGE('',*,*,#563,.F.);
#975=ORIENTED_EDGE('',*,*,#976,.F.);
#976=EDGE_CURVE('',#564,#883,#977,.T.);
#977=LINE('',#565,#66);
#978=ADVANCED_FACE('',(#979),#986,.T.);
#979=FACE_BOUND('',#980,.T.);
#980=EDGE_LOOP('',(#981,#982,#888,#983));
#981=ORIENTED_EDGE('',*,*,#567,.F.);
#982=ORIENTED_EDGE('',*,*,#976,.T.);
#983=ORIENTED_EDGE('',*,*,#984,.T.);
#984=EDGE_CURVE('',#890,#568,#985,.T.);
#985=LINE('',#569,#447);
#986=PLANE('',#987);
#987=AXIS2_PLACEMENT_3D('',#571,#80,#42);
#988=ADVANCED_FACE('',(#989),#664,.T.);
#989=FACE_BOUND('',#990,.T.);
#990=EDGE_LOOP('',(#892,#991,#992));
#991=ORIENTED_EDGE('',*,*,#573,.F.);
#992=ORIENTED_EDGE('',*,*,#984,.F.);
#993=ADVANCED_FACE('',(#994),#655,.T.);
#994=FACE_BOUND('',#995,.T.);
#995=EDGE_LOOP('',(#996,#864,#997));
#996=ORIENTED_EDGE('',*,*,#575,.F.);
#997=ORIENTED_EDGE('',*,*,#998,.F.);
#998=EDGE_CURVE('',#576,#866,#999,.T.);
#999=LINE('',#577,#66);
#1000=ADVANCED_FACE('',(#1001),#986,.T.);
#1001=FACE_BOUND('',#1002,.T.);
#1002=EDGE_LOOP('',(#1003,#1004,#871,#1005));
#1003=ORIENTED_EDGE('',*,*,#579,.F.);
#1004=ORIENTED_EDGE('',*,*,#998,.T.);
#1005=ORIENTED_EDGE('',*,*,#1006,.T.);
#1006=EDGE_CURVE('',#858,#580,#1007,.T.);
#1007=LINE('',#581,#447);
#1008=ADVANCED_FACE('',(#1009),#636,.T.);
#1009=FACE_BOUND('',#1010,.T.);
#1010=EDGE_LOOP('',(#856,#1011,#1012));
#1011=ORIENTED_EDGE('',*,*,#583,.F.);
#1012=ORIENTED_EDGE('',*,*,#1006,.F.);
#1013=ADVANCED_FACE('',(#1014),#1019,.F.);
#1014=FACE_BOUND('',#1015,.F.);
#1015=EDGE_LOOP('',(#1016,#606,#1017,#1018));
#1016=ORIENTED_EDGE('',*,*,#599,.T.);
#1017=ORIENTED_EDGE('',*,*,#624,.F.);
#1018=ORIENTED_EDGE('',*,*,#845,.F.);
#1019=PLANE('',#1020);
#1020=AXIS2_PLACEMENT_3D('',#590,#14,#80);
#1021=ADVANCED_FACE('',(#1022),#1034,.F.);
#1022=FACE_BOUND('',#1023,.F.);
#1023=EDGE_LOOP('',(#1024,#1025,#1031,#756));
#1024=ORIENTED_EDGE('',*,*,#721,.F.);
#1025=ORIENTED_EDGE('',*,*,#1026,.T.);
#1026=EDGE_CURVE('',#716,#1027,#1029,.T.);
#1027=VERTEX_POINT('',#1028);
#1028=CARTESIAN_POINT('',(36.475,4.5,11.245));
#1029=LINE('',#1030,#41);
#1030=CARTESIAN_POINT('',(36.575,4.5,11.245));
#1031=ORIENTED_EDGE('',*,*,#1032,.F.);
#1032=EDGE_CURVE('',#751,#1027,#1033,.T.);
#1033=LINE('',#151,#66);
#1034=PLANE('',#1035);
#1035=AXIS2_PLACEMENT_3D('',#156,#80,#42);
#1036=ADVANCED_FACE('',(#1037),#1047,.T.);
#1037=FACE_BOUND('',#1038,.T.);
#1038=EDGE_LOOP('',(#1039,#1044,#714,#1025));
#1039=ORIENTED_EDGE('',*,*,#1040,.T.);
#1040=EDGE_CURVE('',#1027,#1041,#1043,.T.);
#1041=VERTEX_POINT('',#1042);
#1042=CARTESIAN_POINT('',(36.475,-4.5,11.245));
#1043=LINE('',#1028,#79);
#1044=ORIENTED_EDGE('',*,*,#1045,.T.);
#1045=EDGE_CURVE('',#1041,#710,#1046,.T.);
#1046=LINE('',#1042,#27);
#1047=PLANE('',#1048);
#1048=AXIS2_PLACEMENT_3D('',#1049,#13,#14);
#1049=CARTESIAN_POINT('',(36.525,0.,11.245));
#1050=ADVANCED_FACE('',(#1051),#1057,.F.);
#1051=FACE_BOUND('',#1052,.F.);
#1052=EDGE_LOOP('',(#743,#1053,#1044,#1056));
#1053=ORIENTED_EDGE('',*,*,#1054,.T.);
#1054=EDGE_CURVE('',#745,#1041,#1055,.T.);
#1055=LINE('',#144,#66);
#1056=ORIENTED_EDGE('',*,*,#709,.F.);
#1057=PLANE('',#1058);
#1058=AXIS2_PLACEMENT_3D('',#144,#69,#28);
#1059=ADVANCED_FACE('',(#1060),#1064,.F.);
#1060=FACE_BOUND('',#1061,.F.);
#1061=EDGE_LOOP('',(#749,#1062,#1039,#1063));
#1062=ORIENTED_EDGE('',*,*,#1032,.T.);
#1063=ORIENTED_EDGE('',*,*,#1054,.F.);
#1064=PLANE('',#1065);
#1065=AXIS2_PLACEMENT_3D('',#151,#14,#80);
#1066=ADVANCED_FACE('',(#1067),#1072,.F.);
#1067=FACE_BOUND('',#1068,.F.);
#1068=EDGE_LOOP('',(#1069,#802,#1070,#1071));
#1069=ORIENTED_EDGE('',*,*,#795,.T.);
#1070=ORIENTED_EDGE('',*,*,#820,.F.);
#1071=ORIENTED_EDGE('',*,*,#904,.F.);
#1072=PLANE('',#1073);
#1073=AXIS2_PLACEMENT_3D('',#786,#42,#69);
#1074=ADVANCED_FACE('',(#1075),#1077,.F.);
#1075=FACE_BOUND('',#1076,.F.);
#1076=EDGE_LOOP('',(#922));
#1077=PLANE('',#925);
#1078=ADVANCED_FACE('',(#1079,#1082),#1090,.F.);
#1079=FACE_BOUND('',#1080,.F.);
#1080=EDGE_LOOP('',(#1081));
#1081=ORIENTED_EDGE('',*,*,#942,.T.);
#1082=FACE_BOUND('',#1083,.F.);
#1083=EDGE_LOOP('',(#1084));
#1084=ORIENTED_EDGE('',*,*,#1085,.T.);
#1085=EDGE_CURVE('',#1086,#1086,#1088,.T.);
#1086=VERTEX_POINT('',#1087);
#1087=CARTESIAN_POINT('',(-36.515,0.,15.1));
#1088=CIRCLE('',#1089,6.);
#1089=AXIS2_PLACEMENT_3D('',#947,#14,#13);
#1090=PLANE('',#1091);
#1091=AXIS2_PLACEMENT_3D('',#1092,#311,#35);
#1092=CARTESIAN_POINT('',(-36.515,4.657737307265E-16,9.1));
#1093=ADVANCED_FACE('',(#1094),#1108,.T.);
#1094=FACE_BOUND('',#1095,.F.);
#1095=EDGE_LOOP('',(#1096,#1103,#1106,#1107));
#1096=ORIENTED_EDGE('',*,*,#1097,.F.);
#1097=EDGE_CURVE('',#1098,#1098,#1100,.T.);
#1098=VERTEX_POINT('',#1099);
#1099=CARTESIAN_POINT('',(-36.015,0.,15.1));
#1100=CIRCLE('',#1101,6.);
#1101=AXIS2_PLACEMENT_3D('',#1102,#42,#13);
#1102=CARTESIAN_POINT('',(-36.015,0.,9.1));
#1103=ORIENTED_EDGE('',*,*,#1104,.T.);
#1104=EDGE_CURVE('',#1098,#1086,#1105,.T.);
#1105=LINE('',#1099,#41);
#1106=ORIENTED_EDGE('',*,*,#1085,.F.);
#1107=ORIENTED_EDGE('',*,*,#1104,.F.);
#1108=CYLINDRICAL_SURFACE('',#1109,6.);
#1109=AXIS2_PLACEMENT_3D('',#1102,#511,#13);
#1110=ADVANCED_FACE('',(#1111,#1114),#1122,.F.);
#1111=FACE_BOUND('',#1112,.F.);
#1112=EDGE_LOOP('',(#1113));
#1113=ORIENTED_EDGE('',*,*,#1097,.T.);
#1114=FACE_BOUND('',#1115,.F.);
#1115=EDGE_LOOP('',(#1116));
#1116=ORIENTED_EDGE('',*,*,#1117,.T.);
#1117=EDGE_CURVE('',#1118,#1118,#1120,.T.);
#1118=VERTEX_POINT('',#1119);
#1119=CARTESIAN_POINT('',(-36.015,0.,13.9));
#1120=CIRCLE('',#1121,4.8);
#1121=AXIS2_PLACEMENT_3D('',#1102,#14,#13);
#1122=PLANE('',#1123);
#1123=AXIS2_PLACEMENT_3D('',#1124,#311,#35);
#1124=CARTESIAN_POINT('',(-36.015,-1.70226710729E-17,9.1));
#1125=ADVANCED_FACE('',(#1126),#1140,.T.);
#1126=FACE_BOUND('',#1127,.F.);
#1127=EDGE_LOOP('',(#1128,#1135,#1138,#1139));
#1128=ORIENTED_EDGE('',*,*,#1129,.F.);
#1129=EDGE_CURVE('',#1130,#1130,#1132,.T.);
#1130=VERTEX_POINT('',#1131);
#1131=CARTESIAN_POINT('',(-35.515,0.,13.9));
#1132=CIRCLE('',#1133,4.8);
#1133=AXIS2_PLACEMENT_3D('',#1134,#42,#13);
#1134=CARTESIAN_POINT('',(-35.515,0.,9.1));
#1135=ORIENTED_EDGE('',*,*,#1136,.T.);
#1136=EDGE_CURVE('',#1130,#1118,#1137,.T.);
#1137=LINE('',#1131,#41);
#1138=ORIENTED_EDGE('',*,*,#1117,.F.);
#1139=ORIENTED_EDGE('',*,*,#1136,.F.);
#1140=CYLINDRICAL_SURFACE('',#1141,4.8);
#1141=AXIS2_PLACEMENT_3D('',#1134,#511,#13);
#1142=ADVANCED_FACE('',(#1143,#1146),#1154,.F.);
#1143=FACE_BOUND('',#1144,.F.);
#1144=EDGE_LOOP('',(#1145));
#1145=ORIENTED_EDGE('',*,*,#1129,.T.);
#1146=FACE_BOUND('',#1147,.F.);
#1147=EDGE_LOOP('',(#1148));
#1148=ORIENTED_EDGE('',*,*,#1149,.T.);
#1149=EDGE_CURVE('',#1150,#1150,#1152,.T.);
#1150=VERTEX_POINT('',#1151);
#1151=CARTESIAN_POINT('',(-35.515,0.,12.7));
#1152=CIRCLE('',#1153,3.6);
#1153=AXIS2_PLACEMENT_3D('',#1134,#14,#13);
#1154=PLANE('',#1155);
#1155=AXIS2_PLACEMENT_3D('',#1156,#311,#35);
#1156=CARTESIAN_POINT('',(-35.515,-1.959434878636E-16,9.1));
#1157=ADVANCED_FACE('',(#1158),#1172,.T.);
#1158=FACE_BOUND('',#1159,.F.);
#1159=EDGE_LOOP('',(#1160,#1167,#1170,#1171));
#1160=ORIENTED_EDGE('',*,*,#1161,.F.);
#1161=EDGE_CURVE('',#1162,#1162,#1164,.T.);
#1162=VERTEX_POINT('',#1163);
#1163=CARTESIAN_POINT('',(-35.015,0.,12.7));
#1164=CIRCLE('',#1165,3.6);
#1165=AXIS2_PLACEMENT_3D('',#1166,#42,#13);
#1166=CARTESIAN_POINT('',(-35.015,0.,9.1));
#1167=ORIENTED_EDGE('',*,*,#1168,.T.);
#1168=EDGE_CURVE('',#1162,#1150,#1169,.T.);
#1169=LINE('',#1163,#41);
#1170=ORIENTED_EDGE('',*,*,#1149,.F.);
#1171=ORIENTED_EDGE('',*,*,#1168,.F.);
#1172=CYLINDRICAL_SURFACE('',#1173,3.6);
#1173=AXIS2_PLACEMENT_3D('',#1166,#511,#13);
#1174=ADVANCED_FACE('',(#1175,#1178),#1186,.F.);
#1175=FACE_BOUND('',#1176,.F.);
#1176=EDGE_LOOP('',(#1177));
#1177=ORIENTED_EDGE('',*,*,#1161,.T.);
#1178=FACE_BOUND('',#1179,.F.);
#1179=EDGE_LOOP('',(#1180));
#1180=ORIENTED_EDGE('',*,*,#1181,.T.);
#1181=EDGE_CURVE('',#1182,#1182,#1184,.T.);
#1182=VERTEX_POINT('',#1183);
#1183=CARTESIAN_POINT('',(-35.015,0.,11.5));
#1184=CIRCLE('',#1185,2.4);
#1185=AXIS2_PLACEMENT_3D('',#1166,#14,#13);
#1186=PLANE('',#1187);
#1187=AXIS2_PLACEMENT_3D('',#1188,#311,#35);
#1188=CARTESIAN_POINT('',(-35.015,2.328868653633E-16,9.1));
#1189=ADVANCED_FACE('',(#1190),#1204,.T.);
#1190=FACE_BOUND('',#1191,.F.);
#1191=EDGE_LOOP('',(#1192,#1199,#1202,#1203));
#1192=ORIENTED_EDGE('',*,*,#1193,.F.);
#1193=EDGE_CURVE('',#1194,#1194,#1196,.T.);
#1194=VERTEX_POINT('',#1195);
#1195=CARTESIAN_POINT('',(-34.515,0.,11.5));
#1196=CIRCLE('',#1197,2.4);
#1197=AXIS2_PLACEMENT_3D('',#1198,#42,#13);
#1198=CARTESIAN_POINT('',(-34.515,0.,9.1));
#1199=ORIENTED_EDGE('',*,*,#1200,.T.);
#1200=EDGE_CURVE('',#1194,#1182,#1201,.T.);
#1201=LINE('',#1195,#41);
#1202=ORIENTED_EDGE('',*,*,#1181,.F.);
#1203=ORIENTED_EDGE('',*,*,#1200,.F.);
#1204=CYLINDRICAL_SURFACE('',#1205,2.4);
#1205=AXIS2_PLACEMENT_3D('',#1198,#511,#13);
#1206=ADVANCED_FACE('',(#1207,#1210),#1218,.F.);
#1207=FACE_BOUND('',#1208,.F.);
#1208=EDGE_LOOP('',(#1209));
#1209=ORIENTED_EDGE('',*,*,#1193,.T.);
#1210=FACE_BOUND('',#1211,.F.);
#1211=EDGE_LOOP('',(#1212));
#1212=ORIENTED_EDGE('',*,*,#1213,.T.);
#1213=EDGE_CURVE('',#1214,#1214,#1216,.T.);
#1214=VERTEX_POINT('',#1215);
#1215=CARTESIAN_POINT('',(-34.515,0.,10.2));
#1216=CIRCLE('',#1217,1.1);
#1217=AXIS2_PLACEMENT_3D('',#1198,#14,#13);
#1218=PLANE('',#1219);
#1219=AXIS2_PLACEMENT_3D('',#1220,#311,#35);
#1220=CARTESIAN_POINT('',(-34.515,4.446993654107E-17,9.1));
#1221=ADVANCED_FACE('',(#1222),#1236,.F.);
#1222=FACE_BOUND('',#1223,.T.);
#1223=EDGE_LOOP('',(#1212,#1224,#1230,#1235));
#1224=ORIENTED_EDGE('',*,*,#1225,.T.);
#1225=EDGE_CURVE('',#1214,#1226,#1228,.T.);
#1226=VERTEX_POINT('',#1227);
#1227=CARTESIAN_POINT('',(-34.775,0.,10.2));
#1228=LINE('',#1229,#41);
#1229=CARTESIAN_POINT('',(-34.325,0.,10.2));
#1230=ORIENTED_EDGE('',*,*,#1231,.T.);
#1231=EDGE_CURVE('',#1226,#1226,#1232,.T.);
#1232=CIRCLE('',#1233,1.1);
#1233=AXIS2_PLACEMENT_3D('',#1234,#42,#13);
#1234=CARTESIAN_POINT('',(-34.775,0.,9.1));
#1235=ORIENTED_EDGE('',*,*,#1225,.F.);
#1236=CYLINDRICAL_SURFACE('',#1237,1.1);
#1237=AXIS2_PLACEMENT_3D('',#1238,#511,#13);
#1238=CARTESIAN_POINT('',(-34.325,0.,9.1));
#1239=ADVANCED_FACE('',(#1240),#1242,.F.);
#1240=FACE_BOUND('',#1241,.F.);
#1241=EDGE_LOOP('',(#1230));
#1242=PLANE('',#1243);
#1243=AXIS2_PLACEMENT_3D('',#1244,#311,#35);
#1244=CARTESIAN_POINT('',(-34.775,-4.490371596874E-17,9.1));
#1245=ORIENTED_CLOSED_SHELL('',*,#1246,.F.);
#1246=CLOSED_SHELL('',(#1247,#1272,#1279));
#1247=ADVANCED_FACE('',(#1248),#1269,.T.);
#1248=FACE_BOUND('',#1249,.F.);
#1249=EDGE_LOOP('',(#1250,#1257,#1263,#1268));
#1250=ORIENTED_EDGE('',*,*,#1251,.T.);
#1251=EDGE_CURVE('',#1252,#1252,#1254,.T.);
#1252=VERTEX_POINT('',#1253);
#1253=CARTESIAN_POINT('',(-36.0275,0.,13.8));
#1254=CIRCLE('',#1255,4.7);
#1255=AXIS2_PLACEMENT_3D('',#1256,#14,#13);
#1256=CARTESIAN_POINT('',(-36.0275,0.,9.1));
#1257=ORIENTED_EDGE('',*,*,#1258,.T.);
#1258=EDGE_CURVE('',#1252,#1259,#1261,.T.);
#1259=VERTEX_POINT('',#1260);
#1260=CARTESIAN_POINT('',(-36.275,0.,13.8));
#1261=LINE('',#1262,#41);
#1262=CARTESIAN_POINT('',(-35.825,0.,13.8));
#1263=ORIENTED_EDGE('',*,*,#1264,.T.);
#1264=EDGE_CURVE('',#1259,#1259,#1265,.T.);
#1265=CIRCLE('',#1266,4.7);
#1266=AXIS2_PLACEMENT_3D('',#1267,#42,#13);
#1267=CARTESIAN_POINT('',(-36.275,0.,9.1));
#1268=ORIENTED_EDGE('',*,*,#1258,.F.);
#1269=CYLINDRICAL_SURFACE('',#1270,4.7);
#1270=AXIS2_PLACEMENT_3D('',#1271,#511,#13);
#1271=CARTESIAN_POINT('',(-35.825,0.,9.1));
#1272=ADVANCED_FACE('',(#1273),#1276,.F.);
#1273=FACE_BOUND('',#1274,.F.);
#1274=EDGE_LOOP('',(#1275));
#1275=ORIENTED_EDGE('',*,*,#1251,.F.);
#1276=PLANE('',#1277);
#1277=AXIS2_PLACEMENT_3D('',#1278,#311,#35);
#1278=CARTESIAN_POINT('',(-36.0275,-1.959434878636E-16,9.1));
#1279=ADVANCED_FACE('',(#1280),#1282,.T.);
#1280=FACE_BOUND('',#1281,.T.);
#1281=EDGE_LOOP('',(#1263));
#1282=PLANE('',#1283);
#1283=AXIS2_PLACEMENT_3D('',#1284,#311,#35);
#1284=CARTESIAN_POINT('',(-36.275,-1.918613318664E-16,9.1));
#1285=ORIENTED_CLOSED_SHELL('',*,#1286,.F.);
#1286=CLOSED_SHELL('',(#1287,#1312,#1319));
#1287=ADVANCED_FACE('',(#1288),#1309,.T.);
#1288=FACE_BOUND('',#1289,.F.);
#1289=EDGE_LOOP('',(#1290,#1297,#1303,#1308));
#1290=ORIENTED_EDGE('',*,*,#1291,.T.);
#1291=EDGE_CURVE('',#1292,#1292,#1294,.T.);
#1292=VERTEX_POINT('',#1293);
#1293=CARTESIAN_POINT('',(-35.5275,0.,12.6));
#1294=CIRCLE('',#1295,3.5);
#1295=AXIS2_PLACEMENT_3D('',#1296,#14,#13);
#1296=CARTESIAN_POINT('',(-35.5275,0.,9.1));
#1297=ORIENTED_EDGE('',*,*,#1298,.T.);
#1298=EDGE_CURVE('',#1292,#1299,#1301,.T.);
#1299=VERTEX_POINT('',#1300);
#1300=CARTESIAN_POINT('',(-35.775,0.,12.6));
#1301=LINE('',#1302,#41);
#1302=CARTESIAN_POINT('',(-35.325,0.,12.6));
#1303=ORIENTED_EDGE('',*,*,#1304,.T.);
#1304=EDGE_CURVE('',#1299,#1299,#1305,.T.);
#1305=CIRCLE('',#1306,3.5);
#1306=AXIS2_PLACEMENT_3D('',#1307,#42,#13);
#1307=CARTESIAN_POINT('',(-35.775,0.,9.1));
#1308=ORIENTED_EDGE('',*,*,#1298,.F.);
#1309=CYLINDRICAL_SURFACE('',#1310,3.5);
#1310=AXIS2_PLACEMENT_3D('',#1311,#511,#13);
#1311=CARTESIAN_POINT('',(-35.325,0.,9.1));
#1312=ADVANCED_FACE('',(#1313),#1316,.F.);
#1313=FACE_BOUND('',#1314,.F.);
#1314=EDGE_LOOP('',(#1315));
#1315=ORIENTED_EDGE('',*,*,#1291,.F.);
#1316=PLANE('',#1317);
#1317=AXIS2_PLACEMENT_3D('',#1318,#311,#35);
#1318=CARTESIAN_POINT('',(-35.5275,2.328868653633E-16,9.1));
#1319=ADVANCED_FACE('',(#1320),#1322,.T.);
#1320=FACE_BOUND('',#1321,.T.);
#1321=EDGE_LOOP('',(#1303));
#1322=PLANE('',#1323);
#1323=AXIS2_PLACEMENT_3D('',#1324,#311,#35);
#1324=CARTESIAN_POINT('',(-35.775,2.47821720825E-16,9.1));
#1325=ORIENTED_CLOSED_SHELL('',*,#1326,.F.);
#1326=CLOSED_SHELL('',(#1327,#1352,#1359));
#1327=ADVANCED_FACE('',(#1328),#1349,.T.);
#1328=FACE_BOUND('',#1329,.F.);
#1329=EDGE_LOOP('',(#1330,#1337,#1343,#1348));
#1330=ORIENTED_EDGE('',*,*,#1331,.T.);
#1331=EDGE_CURVE('',#1332,#1332,#1334,.T.);
#1332=VERTEX_POINT('',#1333);
#1333=CARTESIAN_POINT('',(-35.0275,0.,11.4));
#1334=CIRCLE('',#1335,2.3);
#1335=AXIS2_PLACEMENT_3D('',#1336,#14,#13);
#1336=CARTESIAN_POINT('',(-35.0275,0.,9.1));
#1337=ORIENTED_EDGE('',*,*,#1338,.T.);
#1338=EDGE_CURVE('',#1332,#1339,#1341,.T.);
#1339=VERTEX_POINT('',#1340);
#1340=CARTESIAN_POINT('',(-35.275,0.,11.4));
#1341=LINE('',#1342,#41);
#1342=CARTESIAN_POINT('',(-34.825,0.,11.4));
#1343=ORIENTED_EDGE('',*,*,#1344,.T.);
#1344=EDGE_CURVE('',#1339,#1339,#1345,.T.);
#1345=CIRCLE('',#1346,2.3);
#1346=AXIS2_PLACEMENT_3D('',#1347,#42,#13);
#1347=CARTESIAN_POINT('',(-35.275,0.,9.1));
#1348=ORIENTED_EDGE('',*,*,#1338,.F.);
#1349=CYLINDRICAL_SURFACE('',#1350,2.3);
#1350=AXIS2_PLACEMENT_3D('',#1351,#511,#13);
#1351=CARTESIAN_POINT('',(-34.825,0.,9.1));
#1352=ADVANCED_FACE('',(#1353),#1356,.F.);
#1353=FACE_BOUND('',#1354,.F.);
#1354=EDGE_LOOP('',(#1355));
#1355=ORIENTED_EDGE('',*,*,#1331,.F.);
#1356=PLANE('',#1357);
#1357=AXIS2_PLACEMENT_3D('',#1358,#311,#35);
#1358=CARTESIAN_POINT('',(-35.0275,4.446993654107E-17,9.1));
#1359=ADVANCED_FACE('',(#1360),#1362,.T.);
#1360=FACE_BOUND('',#1361,.T.);
#1361=EDGE_LOOP('',(#1343));
#1362=PLANE('',#1363);
#1363=AXIS2_PLACEMENT_3D('',#1364,#311,#35);
#1364=CARTESIAN_POINT('',(-35.275,1.290626075881E-16,9.1));
#1365=ORIENTED_CLOSED_SHELL('',*,#1366,.F.);
#1366=CLOSED_SHELL('',(#1367,#1394,#1419,#1429,#1437));
#1367=ADVANCED_FACE('',(#1368),#522,.F.);
#1368=FACE_BOUND('',#1369,.F.);
#1369=EDGE_LOOP('',(#1370,#1378,#1384,#1390));
#1370=ORIENTED_EDGE('',*,*,#1371,.F.);
#1371=EDGE_CURVE('',#1372,#1374,#1376,.T.);
#1372=VERTEX_POINT('',#1373);
#1373=CARTESIAN_POINT('',(-36.775,0.766485485838,14.95));
#1374=VERTEX_POINT('',#1375);
#1375=CARTESIAN_POINT('',(-36.5275,0.766485485838,14.95));
#1376=LINE('',#1377,#510);
#1377=CARTESIAN_POINT('',(-36.325,0.766485485838,14.95));
#1378=ORIENTED_EDGE('',*,*,#1379,.T.);
#1379=EDGE_CURVE('',#1372,#1380,#1382,.T.);
#1380=VERTEX_POINT('',#1381);
#1381=CARTESIAN_POINT('',(-36.775,-0.766485485838,14.95));
#1382=LINE('',#1383,#79);
#1383=CARTESIAN_POINT('',(-36.775,-4.53884492129E-18,14.95));
#1384=ORIENTED_EDGE('',*,*,#1385,.T.);
#1385=EDGE_CURVE('',#1380,#1386,#1388,.T.);
#1386=VERTEX_POINT('',#1387);
#1387=CARTESIAN_POINT('',(-36.5275,-0.766485485838,14.95));
#1388=LINE('',#1389,#510);
#1389=CARTESIAN_POINT('',(-36.325,-0.766485485838,14.95));
#1390=ORIENTED_EDGE('',*,*,#1391,.F.);
#1391=EDGE_CURVE('',#1374,#1386,#1392,.T.);
#1392=LINE('',#1393,#79);
#1393=CARTESIAN_POINT('',(-36.5275,-8.51133553645E-18,14.95));
#1394=ADVANCED_FACE('',(#1395),#1416,.T.);
#1395=FACE_BOUND('',#1396,.F.);
#1396=EDGE_LOOP('',(#1397,#1404,#1410,#1415));
#1397=ORIENTED_EDGE('',*,*,#1398,.T.);
#1398=EDGE_CURVE('',#1374,#1399,#1401,.T.);
#1399=VERTEX_POINT('',#1400);
#1400=CARTESIAN_POINT('',(-36.5275,0.,15.));
#1401=CIRCLE('',#1402,5.9);
#1402=AXIS2_PLACEMENT_3D('',#1403,#14,#13);
#1403=CARTESIAN_POINT('',(-36.5275,0.,9.1));
#1404=ORIENTED_EDGE('',*,*,#1405,.T.);
#1405=EDGE_CURVE('',#1399,#1406,#1408,.T.);
#1406=VERTEX_POINT('',#1407);
#1407=CARTESIAN_POINT('',(-36.775,0.,15.));
#1408=LINE('',#1409,#41);
#1409=CARTESIAN_POINT('',(-36.325,0.,15.));
#1410=ORIENTED_EDGE('',*,*,#1411,.T.);
#1411=EDGE_CURVE('',#1406,#1372,#1412,.T.);
#1412=CIRCLE('',#1413,5.9);
#1413=AXIS2_PLACEMENT_3D('',#1414,#42,#13);
#1414=CARTESIAN_POINT('',(-36.775,0.,9.1));
#1415=ORIENTED_EDGE('',*,*,#1371,.T.);
#1416=CYLINDRICAL_SURFACE('',#1417,5.9);
#1417=AXIS2_PLACEMENT_3D('',#1418,#511,#13);
#1418=CARTESIAN_POINT('',(-36.325,0.,9.1));
#1419=ADVANCED_FACE('',(#1420),#1426,.F.);
#1420=FACE_BOUND('',#1421,.F.);
#1421=EDGE_LOOP('',(#1422,#1424,#1425));
#1422=ORIENTED_EDGE('',*,*,#1423,.F.);
#1423=EDGE_CURVE('',#1399,#1386,#1401,.T.);
#1424=ORIENTED_EDGE('',*,*,#1398,.F.);
#1425=ORIENTED_EDGE('',*,*,#1391,.T.);
#1426=PLANE('',#1427);
#1427=AXIS2_PLACEMENT_3D('',#1428,#311,#35);
#1428=CARTESIAN_POINT('',(-36.5275,-1.70226710729E-17,9.1));
#1429=ADVANCED_FACE('',(#1430),#1416,.T.);
#1430=FACE_BOUND('',#1431,.F.);
#1431=EDGE_LOOP('',(#1432,#1433,#1434,#1435));
#1432=ORIENTED_EDGE('',*,*,#1405,.F.);
#1433=ORIENTED_EDGE('',*,*,#1423,.T.);
#1434=ORIENTED_EDGE('',*,*,#1385,.F.);
#1435=ORIENTED_EDGE('',*,*,#1436,.T.);
#1436=EDGE_CURVE('',#1380,#1406,#1412,.T.);
#1437=ADVANCED_FACE('',(#1438),#1440,.T.);
#1438=FACE_BOUND('',#1439,.T.);
#1439=EDGE_LOOP('',(#1435,#1410,#1378));
#1440=PLANE('',#1441);
#1441=AXIS2_PLACEMENT_3D('',#1442,#311,#35);
#1442=CARTESIAN_POINT('',(-36.775,-9.07768984258E-18,9.1));
#1443=( GEOMETRIC_REPRESENTATION_CONTEXT(3) GLOBAL_UNCERTAINTY_ASSIGNED_CONTEXT((#1447)) GLOBAL_UNIT_ASSIGNED_CONTEXT((#1444,#1445,#1446)) REPRESENTATION_CONTEXT('Context #1','3D Context with UNIT and UNCERTAINTY') );
#1444=( LENGTH_UNIT() NAMED_UNIT(*) SI_UNIT(.MILLI.,.METRE.) );
#1445=( NAMED_UNIT(*) PLANE_ANGLE_UNIT() SI_UNIT($,.RADIAN.) );
#1446=( NAMED_UNIT(*) SI_UNIT($,.STERADIAN.) SOLID_ANGLE_UNIT() );
#1447=UNCERTAINTY_MEASURE_WITH_UNIT(LENGTH_MEASURE(1.E-07),#1444,'distance_accuracy_value','confusion accuracy');
#1448=PRODUCT_RELATED_PRODUCT_CATEGORY('part',$,(#7));
#1449=MECHANICAL_DESIGN_GEOMETRIC_PRESENTATION_REPRESENTATION('',(#1450,#1460,#1461,#1462,#1471,#1472,#1473,#1474,#1475,#1476,#1477,#1478,#1479,#1480,#1481,#1482,#1483,#1484,#1485,#1486,#1487,#1488,#1489,#1490,#1491,#1492,#1493,#1494,#1495,#1496,#1497,#1498,#1499,#1500,#1501,#1502,#1503,#1504,#1505,#1506,#1507,#1508,#1509,#1510,#1511,#1512,#1513,#1514,#1515,#1516,#1517,#1518,#1519,#1520,#1521,#1522,#1523,#1524,#1525,#1526,#1527,#1528,#1529,#1530,#1531,#1532,#1533,#1534,#1535,#1536,#1537,#1538,#1539,#1540,#1541,#1542,#1543,#1544,#1545,#1546,#1547,#1548,#1549,#1550,#1551,#1552,#1553,#1554,#1555,#1556,#1557,#1558,#1559,#1560,#1561,#1562,#1563,#1564,#1565),#1443);
#1450=STYLED_ITEM('color',(#1451),#17);
#1451=PRESENTATION_STYLE_ASSIGNMENT((#1452,#1458));
#1452=SURFACE_STYLE_USAGE(.BOTH.,#1453);
#1453=SURFACE_SIDE_STYLE('',(#1454));
#1454=SURFACE_STYLE_FILL_AREA(#1455);
#1455=FILL_AREA_STYLE('',(#1456));
#1456=FILL_AREA_STYLE_COLOUR('',#1457);
#1457=COLOUR_RGB('',0.147999998088,0.145000001626,0.145000001626);
#1458=CURVE_STYLE('',#1459,POSITIVE_LENGTH_MEASURE(0.1),#1457);
#1459=DRAUGHTING_PRE_DEFINED_CURVE_FONT('continuous');
#1460=STYLED_ITEM('color',(#1451),#70);
#1461=STYLED_ITEM('color',(#1451),#164);
#1462=OVER_RIDING_STYLED_ITEM('overriding color',(#1463),#197,#1461);
#1463=PRESENTATION_STYLE_ASSIGNMENT((#1464,#1470));
#1464=SURFACE_STYLE_USAGE(.BOTH.,#1465);
#1465=SURFACE_SIDE_STYLE('',(#1466));
#1466=SURFACE_STYLE_FILL_AREA(#1467);
#1467=FILL_AREA_STYLE('',(#1468));
#1468=FILL_AREA_STYLE_COLOUR('',#1469);
#1469=COLOUR_RGB('',0.858999988747,0.738000004258,0.496000005009);
#1470=CURVE_STYLE('',#1459,POSITIVE_LENGTH_MEASURE(0.1),#1469);
#1471=OVER_RIDING_STYLED_ITEM('overriding color',(#1463),#191,#1461);
#1472=OVER_RIDING_STYLED_ITEM('overriding color',(#1463),#184,#1461);
#1473=STYLED_ITEM('color',(#1451),#224);
#1474=STYLED_ITEM('color',(#1451),#293);
#1475=STYLED_ITEM('color',(#1451),#320);
#1476=STYLED_ITEM('color',(#1451),#340);
#1477=OVER_RIDING_STYLED_ITEM('overriding color',(#1463),#387,#1476);
#1478=OVER_RIDING_STYLED_ITEM('overriding color',(#1463),#381,#1476);
#1479=OVER_RIDING_STYLED_ITEM('overriding color',(#1463),#376,#1476);
#1480=STYLED_ITEM('color',(#1463),#391);
#1481=STYLED_ITEM('color',(#1451),#399);
#1482=STYLED_ITEM('color',(#1463),#431);
#1483=STYLED_ITEM('color',(#1451),#439);
#1484=STYLED_ITEM('color',(#1463),#456);
#1485=STYLED_ITEM('color',(#1451),#466);
#1486=STYLED_ITEM('color',(#1451),#483);
#1487=OVER_RIDING_STYLED_ITEM('overriding color',(#1463),#519,#1486);
#1488=OVER_RIDING_STYLED_ITEM('overriding color',(#1463),#513,#1486);
#1489=OVER_RIDING_STYLED_ITEM('overriding color',(#1463),#505,#1486);
#1490=STYLED_ITEM('color',(#1451),#525);
#1491=STYLED_ITEM('color',(#1451),#542);
#1492=STYLED_ITEM('color',(#1463),#584);
#1493=STYLED_ITEM('color',(#1463),#603);
#1494=STYLED_ITEM('color',(#1463),#617);
#1495=STYLED_ITEM('color',(#1451),#629);
#1496=STYLED_ITEM('color',(#1451),#638);
#1497=STYLED_ITEM('color',(#1451),#650);
#1498=STYLED_ITEM('color',(#1451),#657);
#1499=STYLED_ITEM('color',(#1451),#666);
#1500=STYLED_ITEM('color',(#1451),#674);
#1501=STYLED_ITEM('color',(#1451),#681);
#1502=STYLED_ITEM('color',(#1451),#697);
#1503=OVER_RIDING_STYLED_ITEM('overriding color',(#1463),#721,#1502);
#1504=OVER_RIDING_STYLED_ITEM('overriding color',(#1463),#715,#1502);
#1505=OVER_RIDING_STYLED_ITEM('overriding color',(#1463),#709,#1502);
#1506=STYLED_ITEM('color',(#1451),#739);
#1507=OVER_RIDING_STYLED_ITEM('overriding color',(#1463),#757,#1506);
#1508=OVER_RIDING_STYLED_ITEM('overriding color',(#1463),#750,#1506);
#1509=OVER_RIDING_STYLED_ITEM('overriding color',(#1463),#744,#1506);
#1510=STYLED_ITEM('color',(#1451),#768);
#1511=OVER_RIDING_STYLED_ITEM('overriding color',(#1463),#773,#1510);
#1512=STYLED_ITEM('color',(#1463),#780);
#1513=STYLED_ITEM('color',(#1463),#799);
#1514=STYLED_ITEM('color',(#1463),#813);
#1515=STYLED_ITEM('color',(#1451),#825);
#1516=STYLED_ITEM('color',(#1451),#837);
#1517=STYLED_ITEM('color',(#1463),#841);
#1518=STYLED_ITEM('color',(#1451),#853);
#1519=STYLED_ITEM('color',(#1451),#878);
#1520=STYLED_ITEM('color',(#1463),#898);
#1521=STYLED_ITEM('color',(#1451),#910);
#1522=STYLED_ITEM('color',(#1463),#938);
#1523=STYLED_ITEM('color',(#1463),#964);
#1524=STYLED_ITEM('color',(#1451),#971);
#1525=STYLED_ITEM('color',(#1451),#978);
#1526=STYLED_ITEM('color',(#1451),#988);
#1527=STYLED_ITEM('color',(#1451),#993);
#1528=STYLED_ITEM('color',(#1451),#1000);
#1529=STYLED_ITEM('color',(#1451),#1008);
#1530=STYLED_ITEM('color',(#1463),#1013);
#1531=STYLED_ITEM('color',(#1463),#1021);
#1532=STYLED_ITEM('color',(#1463),#1036);
#1533=STYLED_ITEM('color',(#1463),#1050);
#1534=STYLED_ITEM('color',(#1463),#1059);
#1535=STYLED_ITEM('color',(#1463),#1066);
#1536=STYLED_ITEM('color',(#1451),#1074);
#1537=STYLED_ITEM('color',(#1463),#1078);
#1538=STYLED_ITEM('color',(#1463),#1093);
#1539=STYLED_ITEM('color',(#1463),#1110);
#1540=STYLED_ITEM('color',(#1463),#1125);
#1541=STYLED_ITEM('color',(#1463),#1142);
#1542=STYLED_ITEM('color',(#1463),#1157);
#1543=STYLED_ITEM('color',(#1463),#1174);
#1544=STYLED_ITEM('color',(#1463),#1189);
#1545=STYLED_ITEM('color',(#1463),#1206);
#1546=STYLED_ITEM('color',(#1463),#1221);
#1547=STYLED_ITEM('color',(#1463),#1239);
#1548=STYLED_ITEM('color',(#1463),#1247);
#1549=STYLED_ITEM('color',(#1463),#1272);
#1550=STYLED_ITEM('color',(#1463),#1279);
#1551=STYLED_ITEM('color',(#1463),#1287);
#1552=STYLED_ITEM('color',(#1463),#1312);
#1553=STYLED_ITEM('color',(#1463),#1319);
#1554=STYLED_ITEM('color',(#1463),#1327);
#1555=STYLED_ITEM('color',(#1463),#1352);
#1556=STYLED_ITEM('color',(#1463),#1359);
#1557=STYLED_ITEM('color',(#1451),#1367);
#1558=OVER_RIDING_STYLED_ITEM('overriding color',(#1463),#1371,#1557);
#1559=OVER_RIDING_STYLED_ITEM('overriding color',(#1463),#1391,#1557);
#1560=OVER_RIDING_STYLED_ITEM('overriding color',(#1463),#1385,#1557);
#1561=OVER_RIDING_STYLED_ITEM('overriding color',(#1463),#1379,#1557);
#1562=STYLED_ITEM('color',(#1463),#1394);
#1563=STYLED_ITEM('color',(#1463),#1419);
#1564=STYLED_ITEM('color',(#1463),#1429);
#1565=STYLED_ITEM('color',(#1463),#1437);
ENDSEC;
END-ISO-10303-21;
